G04 #@! TF.FileFunction,Legend,Bot*
%FSLAX46Y46*%
G04 Gerber Fmt 4.6, Leading zero omitted, Abs format (unit mm)*
G04 Created by KiCad (PCBNEW 4.0.7) date 03/19/18 18:58:34*
%MOMM*%
%LPD*%
G01*
G04 APERTURE LIST*
%ADD10C,0.100000*%
%ADD11C,0.150000*%
%ADD12C,0.300000*%
%ADD13C,0.400000*%
%ADD14C,0.175000*%
G04 APERTURE END LIST*
D10*
D11*
X177002200Y-166007200D02*
X177002200Y-198007200D01*
X285002200Y-198007200D01*
X285002200Y-166007200D01*
X177002200Y-166007200D01*
D10*
D11*
X10000000Y-10000000D02*
X10000000Y-200007200D01*
X287002200Y-200007200D01*
X287002200Y-10000000D01*
X10000000Y-10000000D01*
D10*
D11*
X12000000Y-12000000D02*
X12000000Y-198007200D01*
X285002200Y-198007200D01*
X285002200Y-12000000D01*
X12000000Y-12000000D01*
D10*
D11*
X60000000Y-12000000D02*
X60000000Y-10000000D01*
D10*
D11*
X110000000Y-12000000D02*
X110000000Y-10000000D01*
D10*
D11*
X160000000Y-12000000D02*
X160000000Y-10000000D01*
D10*
D11*
X210000000Y-12000000D02*
X210000000Y-10000000D01*
D10*
D11*
X260000000Y-12000000D02*
X260000000Y-10000000D01*
D10*
D11*
X35990476Y-11588095D02*
X35247619Y-11588095D01*
X35619048Y-11588095D02*
X35619048Y-10288095D01*
X35495238Y-10473810D01*
X35371429Y-10597619D01*
X35247619Y-10659524D01*
D10*
D11*
X85247619Y-10411905D02*
X85309524Y-10350000D01*
X85433333Y-10288095D01*
X85742857Y-10288095D01*
X85866667Y-10350000D01*
X85928571Y-10411905D01*
X85990476Y-10535714D01*
X85990476Y-10659524D01*
X85928571Y-10845238D01*
X85185714Y-11588095D01*
X85990476Y-11588095D01*
D10*
D11*
X135185714Y-10288095D02*
X135990476Y-10288095D01*
X135557143Y-10783333D01*
X135742857Y-10783333D01*
X135866667Y-10845238D01*
X135928571Y-10907143D01*
X135990476Y-11030952D01*
X135990476Y-11340476D01*
X135928571Y-11464286D01*
X135866667Y-11526190D01*
X135742857Y-11588095D01*
X135371429Y-11588095D01*
X135247619Y-11526190D01*
X135185714Y-11464286D01*
D10*
D11*
X185866667Y-10721429D02*
X185866667Y-11588095D01*
X185557143Y-10226190D02*
X185247619Y-11154762D01*
X186052381Y-11154762D01*
D10*
D11*
X235928571Y-10288095D02*
X235309524Y-10288095D01*
X235247619Y-10907143D01*
X235309524Y-10845238D01*
X235433333Y-10783333D01*
X235742857Y-10783333D01*
X235866667Y-10845238D01*
X235928571Y-10907143D01*
X235990476Y-11030952D01*
X235990476Y-11340476D01*
X235928571Y-11464286D01*
X235866667Y-11526190D01*
X235742857Y-11588095D01*
X235433333Y-11588095D01*
X235309524Y-11526190D01*
X235247619Y-11464286D01*
D10*
D11*
X285866667Y-10288095D02*
X285619048Y-10288095D01*
X285495238Y-10350000D01*
X285433333Y-10411905D01*
X285309524Y-10597619D01*
X285247619Y-10845238D01*
X285247619Y-11340476D01*
X285309524Y-11464286D01*
X285371429Y-11526190D01*
X285495238Y-11588095D01*
X285742857Y-11588095D01*
X285866667Y-11526190D01*
X285928571Y-11464286D01*
X285990476Y-11340476D01*
X285990476Y-11030952D01*
X285928571Y-10907143D01*
X285866667Y-10845238D01*
X285742857Y-10783333D01*
X285495238Y-10783333D01*
X285371429Y-10845238D01*
X285309524Y-10907143D01*
X285247619Y-11030952D01*
D10*
D11*
X60000000Y-198007200D02*
X60000000Y-200007200D01*
D10*
D11*
X110000000Y-198007200D02*
X110000000Y-200007200D01*
D10*
D11*
X160000000Y-198007200D02*
X160000000Y-200007200D01*
D10*
D11*
X210000000Y-198007200D02*
X210000000Y-200007200D01*
D10*
D11*
X260000000Y-198007200D02*
X260000000Y-200007200D01*
D10*
D11*
X35990476Y-199595295D02*
X35247619Y-199595295D01*
X35619048Y-199595295D02*
X35619048Y-198295295D01*
X35495238Y-198481010D01*
X35371429Y-198604819D01*
X35247619Y-198666724D01*
D10*
D11*
X85247619Y-198419105D02*
X85309524Y-198357200D01*
X85433333Y-198295295D01*
X85742857Y-198295295D01*
X85866667Y-198357200D01*
X85928571Y-198419105D01*
X85990476Y-198542914D01*
X85990476Y-198666724D01*
X85928571Y-198852438D01*
X85185714Y-199595295D01*
X85990476Y-199595295D01*
D10*
D11*
X135185714Y-198295295D02*
X135990476Y-198295295D01*
X135557143Y-198790533D01*
X135742857Y-198790533D01*
X135866667Y-198852438D01*
X135928571Y-198914343D01*
X135990476Y-199038152D01*
X135990476Y-199347676D01*
X135928571Y-199471486D01*
X135866667Y-199533390D01*
X135742857Y-199595295D01*
X135371429Y-199595295D01*
X135247619Y-199533390D01*
X135185714Y-199471486D01*
D10*
D11*
X185866667Y-198728629D02*
X185866667Y-199595295D01*
X185557143Y-198233390D02*
X185247619Y-199161962D01*
X186052381Y-199161962D01*
D10*
D11*
X235928571Y-198295295D02*
X235309524Y-198295295D01*
X235247619Y-198914343D01*
X235309524Y-198852438D01*
X235433333Y-198790533D01*
X235742857Y-198790533D01*
X235866667Y-198852438D01*
X235928571Y-198914343D01*
X235990476Y-199038152D01*
X235990476Y-199347676D01*
X235928571Y-199471486D01*
X235866667Y-199533390D01*
X235742857Y-199595295D01*
X235433333Y-199595295D01*
X235309524Y-199533390D01*
X235247619Y-199471486D01*
D10*
D11*
X285866667Y-198295295D02*
X285619048Y-198295295D01*
X285495238Y-198357200D01*
X285433333Y-198419105D01*
X285309524Y-198604819D01*
X285247619Y-198852438D01*
X285247619Y-199347676D01*
X285309524Y-199471486D01*
X285371429Y-199533390D01*
X285495238Y-199595295D01*
X285742857Y-199595295D01*
X285866667Y-199533390D01*
X285928571Y-199471486D01*
X285990476Y-199347676D01*
X285990476Y-199038152D01*
X285928571Y-198914343D01*
X285866667Y-198852438D01*
X285742857Y-198790533D01*
X285495238Y-198790533D01*
X285371429Y-198852438D01*
X285309524Y-198914343D01*
X285247619Y-199038152D01*
D10*
D11*
X10000000Y-60000000D02*
X12000000Y-60000000D01*
D10*
D11*
X10000000Y-110000000D02*
X12000000Y-110000000D01*
D10*
D11*
X10000000Y-160000000D02*
X12000000Y-160000000D01*
D10*
D11*
X10690476Y-35216667D02*
X11309524Y-35216667D01*
X10566667Y-35588095D02*
X11000000Y-34288095D01*
X11433333Y-35588095D01*
D10*
D11*
X11092857Y-84907143D02*
X11278571Y-84969048D01*
X11340476Y-85030952D01*
X11402381Y-85154762D01*
X11402381Y-85340476D01*
X11340476Y-85464286D01*
X11278571Y-85526190D01*
X11154762Y-85588095D01*
X10659524Y-85588095D01*
X10659524Y-84288095D01*
X11092857Y-84288095D01*
X11216667Y-84350000D01*
X11278571Y-84411905D01*
X11340476Y-84535714D01*
X11340476Y-84659524D01*
X11278571Y-84783333D01*
X11216667Y-84845238D01*
X11092857Y-84907143D01*
X10659524Y-84907143D01*
D10*
D11*
X11402381Y-135464286D02*
X11340476Y-135526190D01*
X11154762Y-135588095D01*
X11030952Y-135588095D01*
X10845238Y-135526190D01*
X10721429Y-135402381D01*
X10659524Y-135278571D01*
X10597619Y-135030952D01*
X10597619Y-134845238D01*
X10659524Y-134597619D01*
X10721429Y-134473810D01*
X10845238Y-134350000D01*
X11030952Y-134288095D01*
X11154762Y-134288095D01*
X11340476Y-134350000D01*
X11402381Y-134411905D01*
D10*
D11*
X10659524Y-185588095D02*
X10659524Y-184288095D01*
X10969048Y-184288095D01*
X11154762Y-184350000D01*
X11278571Y-184473810D01*
X11340476Y-184597619D01*
X11402381Y-184845238D01*
X11402381Y-185030952D01*
X11340476Y-185278571D01*
X11278571Y-185402381D01*
X11154762Y-185526190D01*
X10969048Y-185588095D01*
X10659524Y-185588095D01*
D10*
D11*
X287002200Y-60000000D02*
X285002200Y-60000000D01*
D10*
D11*
X287002200Y-110000000D02*
X285002200Y-110000000D01*
D10*
D11*
X287002200Y-160000000D02*
X285002200Y-160000000D01*
D10*
D11*
X285692676Y-35216667D02*
X286311724Y-35216667D01*
X285568867Y-35588095D02*
X286002200Y-34288095D01*
X286435533Y-35588095D01*
D10*
D11*
X286095057Y-84907143D02*
X286280771Y-84969048D01*
X286342676Y-85030952D01*
X286404581Y-85154762D01*
X286404581Y-85340476D01*
X286342676Y-85464286D01*
X286280771Y-85526190D01*
X286156962Y-85588095D01*
X285661724Y-85588095D01*
X285661724Y-84288095D01*
X286095057Y-84288095D01*
X286218867Y-84350000D01*
X286280771Y-84411905D01*
X286342676Y-84535714D01*
X286342676Y-84659524D01*
X286280771Y-84783333D01*
X286218867Y-84845238D01*
X286095057Y-84907143D01*
X285661724Y-84907143D01*
D10*
D11*
X286404581Y-135464286D02*
X286342676Y-135526190D01*
X286156962Y-135588095D01*
X286033152Y-135588095D01*
X285847438Y-135526190D01*
X285723629Y-135402381D01*
X285661724Y-135278571D01*
X285599819Y-135030952D01*
X285599819Y-134845238D01*
X285661724Y-134597619D01*
X285723629Y-134473810D01*
X285847438Y-134350000D01*
X286033152Y-134288095D01*
X286156962Y-134288095D01*
X286342676Y-134350000D01*
X286404581Y-134411905D01*
D10*
D11*
X285661724Y-185588095D02*
X285661724Y-184288095D01*
X285971248Y-184288095D01*
X286156962Y-184350000D01*
X286280771Y-184473810D01*
X286342676Y-184597619D01*
X286404581Y-184845238D01*
X286404581Y-185030952D01*
X286342676Y-185278571D01*
X286280771Y-185402381D01*
X286156962Y-185526190D01*
X285971248Y-185588095D01*
X285661724Y-185588095D01*
D10*
D11*
X200359343Y-193785771D02*
X200359343Y-192285771D01*
X200716486Y-192285771D01*
X200930771Y-192357200D01*
X201073629Y-192500057D01*
X201145057Y-192642914D01*
X201216486Y-192928629D01*
X201216486Y-193142914D01*
X201145057Y-193428629D01*
X201073629Y-193571486D01*
X200930771Y-193714343D01*
X200716486Y-193785771D01*
X200359343Y-193785771D01*
X202502200Y-193785771D02*
X202502200Y-193000057D01*
X202430771Y-192857200D01*
X202287914Y-192785771D01*
X202002200Y-192785771D01*
X201859343Y-192857200D01*
X202502200Y-193714343D02*
X202359343Y-193785771D01*
X202002200Y-193785771D01*
X201859343Y-193714343D01*
X201787914Y-193571486D01*
X201787914Y-193428629D01*
X201859343Y-193285771D01*
X202002200Y-193214343D01*
X202359343Y-193214343D01*
X202502200Y-193142914D01*
X203002200Y-192785771D02*
X203573629Y-192785771D01*
X203216486Y-192285771D02*
X203216486Y-193571486D01*
X203287914Y-193714343D01*
X203430772Y-193785771D01*
X203573629Y-193785771D01*
X204645057Y-193714343D02*
X204502200Y-193785771D01*
X204216486Y-193785771D01*
X204073629Y-193714343D01*
X204002200Y-193571486D01*
X204002200Y-193000057D01*
X204073629Y-192857200D01*
X204216486Y-192785771D01*
X204502200Y-192785771D01*
X204645057Y-192857200D01*
X204716486Y-193000057D01*
X204716486Y-193142914D01*
X204002200Y-193285771D01*
X205359343Y-193642914D02*
X205430771Y-193714343D01*
X205359343Y-193785771D01*
X205287914Y-193714343D01*
X205359343Y-193642914D01*
X205359343Y-193785771D01*
X205359343Y-192857200D02*
X205430771Y-192928629D01*
X205359343Y-193000057D01*
X205287914Y-192928629D01*
X205359343Y-192857200D01*
X205359343Y-193000057D01*
X207145057Y-192428629D02*
X207216486Y-192357200D01*
X207359343Y-192285771D01*
X207716486Y-192285771D01*
X207859343Y-192357200D01*
X207930772Y-192428629D01*
X208002200Y-192571486D01*
X208002200Y-192714343D01*
X207930772Y-192928629D01*
X207073629Y-193785771D01*
X208002200Y-193785771D01*
X208930771Y-192285771D02*
X209073628Y-192285771D01*
X209216485Y-192357200D01*
X209287914Y-192428629D01*
X209359343Y-192571486D01*
X209430771Y-192857200D01*
X209430771Y-193214343D01*
X209359343Y-193500057D01*
X209287914Y-193642914D01*
X209216485Y-193714343D01*
X209073628Y-193785771D01*
X208930771Y-193785771D01*
X208787914Y-193714343D01*
X208716485Y-193642914D01*
X208645057Y-193500057D01*
X208573628Y-193214343D01*
X208573628Y-192857200D01*
X208645057Y-192571486D01*
X208716485Y-192428629D01*
X208787914Y-192357200D01*
X208930771Y-192285771D01*
X210859342Y-193785771D02*
X210002199Y-193785771D01*
X210430771Y-193785771D02*
X210430771Y-192285771D01*
X210287914Y-192500057D01*
X210145056Y-192642914D01*
X210002199Y-192714343D01*
X211716485Y-192928629D02*
X211573627Y-192857200D01*
X211502199Y-192785771D01*
X211430770Y-192642914D01*
X211430770Y-192571486D01*
X211502199Y-192428629D01*
X211573627Y-192357200D01*
X211716485Y-192285771D01*
X212002199Y-192285771D01*
X212145056Y-192357200D01*
X212216485Y-192428629D01*
X212287913Y-192571486D01*
X212287913Y-192642914D01*
X212216485Y-192785771D01*
X212145056Y-192857200D01*
X212002199Y-192928629D01*
X211716485Y-192928629D01*
X211573627Y-193000057D01*
X211502199Y-193071486D01*
X211430770Y-193214343D01*
X211430770Y-193500057D01*
X211502199Y-193642914D01*
X211573627Y-193714343D01*
X211716485Y-193785771D01*
X212002199Y-193785771D01*
X212145056Y-193714343D01*
X212216485Y-193642914D01*
X212287913Y-193500057D01*
X212287913Y-193214343D01*
X212216485Y-193071486D01*
X212145056Y-193000057D01*
X212002199Y-192928629D01*
X212930770Y-193214343D02*
X214073627Y-193214343D01*
X215073627Y-192285771D02*
X215216484Y-192285771D01*
X215359341Y-192357200D01*
X215430770Y-192428629D01*
X215502199Y-192571486D01*
X215573627Y-192857200D01*
X215573627Y-193214343D01*
X215502199Y-193500057D01*
X215430770Y-193642914D01*
X215359341Y-193714343D01*
X215216484Y-193785771D01*
X215073627Y-193785771D01*
X214930770Y-193714343D01*
X214859341Y-193642914D01*
X214787913Y-193500057D01*
X214716484Y-193214343D01*
X214716484Y-192857200D01*
X214787913Y-192571486D01*
X214859341Y-192428629D01*
X214930770Y-192357200D01*
X215073627Y-192285771D01*
X216073627Y-192285771D02*
X217002198Y-192285771D01*
X216502198Y-192857200D01*
X216716484Y-192857200D01*
X216859341Y-192928629D01*
X216930770Y-193000057D01*
X217002198Y-193142914D01*
X217002198Y-193500057D01*
X216930770Y-193642914D01*
X216859341Y-193714343D01*
X216716484Y-193785771D01*
X216287912Y-193785771D01*
X216145055Y-193714343D01*
X216073627Y-193642914D01*
X217645055Y-193214343D02*
X218787912Y-193214343D01*
X220287912Y-193785771D02*
X219430769Y-193785771D01*
X219859341Y-193785771D02*
X219859341Y-192285771D01*
X219716484Y-192500057D01*
X219573626Y-192642914D01*
X219430769Y-192714343D01*
X221145055Y-192928629D02*
X221002197Y-192857200D01*
X220930769Y-192785771D01*
X220859340Y-192642914D01*
X220859340Y-192571486D01*
X220930769Y-192428629D01*
X221002197Y-192357200D01*
X221145055Y-192285771D01*
X221430769Y-192285771D01*
X221573626Y-192357200D01*
X221645055Y-192428629D01*
X221716483Y-192571486D01*
X221716483Y-192642914D01*
X221645055Y-192785771D01*
X221573626Y-192857200D01*
X221430769Y-192928629D01*
X221145055Y-192928629D01*
X221002197Y-193000057D01*
X220930769Y-193071486D01*
X220859340Y-193214343D01*
X220859340Y-193500057D01*
X220930769Y-193642914D01*
X221002197Y-193714343D01*
X221145055Y-193785771D01*
X221430769Y-193785771D01*
X221573626Y-193714343D01*
X221645055Y-193642914D01*
X221716483Y-193500057D01*
X221716483Y-193214343D01*
X221645055Y-193071486D01*
X221573626Y-193000057D01*
X221430769Y-192928629D01*
D10*
D11*
X177002200Y-194507200D02*
X285002200Y-194507200D01*
D10*
D11*
X178359343Y-196585771D02*
X178359343Y-195085771D01*
X179216486Y-196585771D02*
X178573629Y-195728629D01*
X179216486Y-195085771D02*
X178359343Y-195942914D01*
X179859343Y-196585771D02*
X179859343Y-195585771D01*
X179859343Y-195085771D02*
X179787914Y-195157200D01*
X179859343Y-195228629D01*
X179930771Y-195157200D01*
X179859343Y-195085771D01*
X179859343Y-195228629D01*
X181430772Y-196442914D02*
X181359343Y-196514343D01*
X181145057Y-196585771D01*
X181002200Y-196585771D01*
X180787915Y-196514343D01*
X180645057Y-196371486D01*
X180573629Y-196228629D01*
X180502200Y-195942914D01*
X180502200Y-195728629D01*
X180573629Y-195442914D01*
X180645057Y-195300057D01*
X180787915Y-195157200D01*
X181002200Y-195085771D01*
X181145057Y-195085771D01*
X181359343Y-195157200D01*
X181430772Y-195228629D01*
X182716486Y-196585771D02*
X182716486Y-195800057D01*
X182645057Y-195657200D01*
X182502200Y-195585771D01*
X182216486Y-195585771D01*
X182073629Y-195657200D01*
X182716486Y-196514343D02*
X182573629Y-196585771D01*
X182216486Y-196585771D01*
X182073629Y-196514343D01*
X182002200Y-196371486D01*
X182002200Y-196228629D01*
X182073629Y-196085771D01*
X182216486Y-196014343D01*
X182573629Y-196014343D01*
X182716486Y-195942914D01*
X184073629Y-196585771D02*
X184073629Y-195085771D01*
X184073629Y-196514343D02*
X183930772Y-196585771D01*
X183645058Y-196585771D01*
X183502200Y-196514343D01*
X183430772Y-196442914D01*
X183359343Y-196300057D01*
X183359343Y-195871486D01*
X183430772Y-195728629D01*
X183502200Y-195657200D01*
X183645058Y-195585771D01*
X183930772Y-195585771D01*
X184073629Y-195657200D01*
X185930772Y-195800057D02*
X186430772Y-195800057D01*
X186645058Y-196585771D02*
X185930772Y-196585771D01*
X185930772Y-195085771D01*
X186645058Y-195085771D01*
X187287915Y-196442914D02*
X187359343Y-196514343D01*
X187287915Y-196585771D01*
X187216486Y-196514343D01*
X187287915Y-196442914D01*
X187287915Y-196585771D01*
X188002201Y-196585771D02*
X188002201Y-195085771D01*
X188359344Y-195085771D01*
X188573629Y-195157200D01*
X188716487Y-195300057D01*
X188787915Y-195442914D01*
X188859344Y-195728629D01*
X188859344Y-195942914D01*
X188787915Y-196228629D01*
X188716487Y-196371486D01*
X188573629Y-196514343D01*
X188359344Y-196585771D01*
X188002201Y-196585771D01*
X189502201Y-196442914D02*
X189573629Y-196514343D01*
X189502201Y-196585771D01*
X189430772Y-196514343D01*
X189502201Y-196442914D01*
X189502201Y-196585771D01*
X190145058Y-196157200D02*
X190859344Y-196157200D01*
X190002201Y-196585771D02*
X190502201Y-195085771D01*
X191002201Y-196585771D01*
X191502201Y-196442914D02*
X191573629Y-196514343D01*
X191502201Y-196585771D01*
X191430772Y-196514343D01*
X191502201Y-196442914D01*
X191502201Y-196585771D01*
X194502201Y-196585771D02*
X194502201Y-195085771D01*
X194645058Y-196014343D02*
X195073629Y-196585771D01*
X195073629Y-195585771D02*
X194502201Y-196157200D01*
X195716487Y-196585771D02*
X195716487Y-195585771D01*
X195716487Y-195085771D02*
X195645058Y-195157200D01*
X195716487Y-195228629D01*
X195787915Y-195157200D01*
X195716487Y-195085771D01*
X195716487Y-195228629D01*
X197073630Y-196514343D02*
X196930773Y-196585771D01*
X196645059Y-196585771D01*
X196502201Y-196514343D01*
X196430773Y-196442914D01*
X196359344Y-196300057D01*
X196359344Y-195871486D01*
X196430773Y-195728629D01*
X196502201Y-195657200D01*
X196645059Y-195585771D01*
X196930773Y-195585771D01*
X197073630Y-195657200D01*
X198359344Y-196585771D02*
X198359344Y-195800057D01*
X198287915Y-195657200D01*
X198145058Y-195585771D01*
X197859344Y-195585771D01*
X197716487Y-195657200D01*
X198359344Y-196514343D02*
X198216487Y-196585771D01*
X197859344Y-196585771D01*
X197716487Y-196514343D01*
X197645058Y-196371486D01*
X197645058Y-196228629D01*
X197716487Y-196085771D01*
X197859344Y-196014343D01*
X198216487Y-196014343D01*
X198359344Y-195942914D01*
X199716487Y-196585771D02*
X199716487Y-195085771D01*
X199716487Y-196514343D02*
X199573630Y-196585771D01*
X199287916Y-196585771D01*
X199145058Y-196514343D01*
X199073630Y-196442914D01*
X199002201Y-196300057D01*
X199002201Y-195871486D01*
X199073630Y-195728629D01*
X199145058Y-195657200D01*
X199287916Y-195585771D01*
X199573630Y-195585771D01*
X199716487Y-195657200D01*
X202216487Y-195585771D02*
X202216487Y-196585771D01*
X201859344Y-195014343D02*
X201502201Y-196085771D01*
X202430773Y-196085771D01*
X203002201Y-196442914D02*
X203073629Y-196514343D01*
X203002201Y-196585771D01*
X202930772Y-196514343D01*
X203002201Y-196442914D01*
X203002201Y-196585771D01*
X204002201Y-195085771D02*
X204145058Y-195085771D01*
X204287915Y-195157200D01*
X204359344Y-195228629D01*
X204430773Y-195371486D01*
X204502201Y-195657200D01*
X204502201Y-196014343D01*
X204430773Y-196300057D01*
X204359344Y-196442914D01*
X204287915Y-196514343D01*
X204145058Y-196585771D01*
X204002201Y-196585771D01*
X203859344Y-196514343D01*
X203787915Y-196442914D01*
X203716487Y-196300057D01*
X203645058Y-196014343D01*
X203645058Y-195657200D01*
X203716487Y-195371486D01*
X203787915Y-195228629D01*
X203859344Y-195157200D01*
X204002201Y-195085771D01*
X205145058Y-196442914D02*
X205216486Y-196514343D01*
X205145058Y-196585771D01*
X205073629Y-196514343D01*
X205145058Y-196442914D01*
X205145058Y-196585771D01*
X205716487Y-195085771D02*
X206716487Y-195085771D01*
X206073630Y-196585771D01*
D10*
D11*
X177002200Y-191507200D02*
X285002200Y-191507200D01*
D10*
D12*
X264216486Y-193785771D02*
X263716486Y-193071486D01*
X263359343Y-193785771D02*
X263359343Y-192285771D01*
X263930771Y-192285771D01*
X264073629Y-192357200D01*
X264145057Y-192428629D01*
X264216486Y-192571486D01*
X264216486Y-192785771D01*
X264145057Y-192928629D01*
X264073629Y-193000057D01*
X263930771Y-193071486D01*
X263359343Y-193071486D01*
X265430771Y-193714343D02*
X265287914Y-193785771D01*
X265002200Y-193785771D01*
X264859343Y-193714343D01*
X264787914Y-193571486D01*
X264787914Y-193000057D01*
X264859343Y-192857200D01*
X265002200Y-192785771D01*
X265287914Y-192785771D01*
X265430771Y-192857200D01*
X265502200Y-193000057D01*
X265502200Y-193142914D01*
X264787914Y-193285771D01*
X266002200Y-192785771D02*
X266359343Y-193785771D01*
X266716485Y-192785771D01*
X267287914Y-193642914D02*
X267359342Y-193714343D01*
X267287914Y-193785771D01*
X267216485Y-193714343D01*
X267287914Y-193642914D01*
X267287914Y-193785771D01*
X267287914Y-192857200D02*
X267359342Y-192928629D01*
X267287914Y-193000057D01*
X267216485Y-192928629D01*
X267287914Y-192857200D01*
X267287914Y-193000057D01*
X268930771Y-192285771D02*
X269430771Y-193785771D01*
X269930771Y-192285771D01*
X271216485Y-193785771D02*
X270359342Y-193785771D01*
X270787914Y-193785771D02*
X270787914Y-192285771D01*
X270645057Y-192500057D01*
X270502199Y-192642914D01*
X270359342Y-192714343D01*
X271859342Y-193642914D02*
X271930770Y-193714343D01*
X271859342Y-193785771D01*
X271787913Y-193714343D01*
X271859342Y-193642914D01*
X271859342Y-193785771D01*
X272859342Y-192285771D02*
X273002199Y-192285771D01*
X273145056Y-192357200D01*
X273216485Y-192428629D01*
X273287914Y-192571486D01*
X273359342Y-192857200D01*
X273359342Y-193214343D01*
X273287914Y-193500057D01*
X273216485Y-193642914D01*
X273145056Y-193714343D01*
X273002199Y-193785771D01*
X272859342Y-193785771D01*
X272716485Y-193714343D01*
X272645056Y-193642914D01*
X272573628Y-193500057D01*
X272502199Y-193214343D01*
X272502199Y-192857200D01*
X272573628Y-192571486D01*
X272645056Y-192428629D01*
X272716485Y-192357200D01*
X272859342Y-192285771D01*
D10*
D11*
X178287914Y-193714343D02*
X178502200Y-193785771D01*
X178859343Y-193785771D01*
X179002200Y-193714343D01*
X179073629Y-193642914D01*
X179145057Y-193500057D01*
X179145057Y-193357200D01*
X179073629Y-193214343D01*
X179002200Y-193142914D01*
X178859343Y-193071486D01*
X178573629Y-193000057D01*
X178430771Y-192928629D01*
X178359343Y-192857200D01*
X178287914Y-192714343D01*
X178287914Y-192571486D01*
X178359343Y-192428629D01*
X178430771Y-192357200D01*
X178573629Y-192285771D01*
X178930771Y-192285771D01*
X179145057Y-192357200D01*
X179787914Y-193785771D02*
X179787914Y-192785771D01*
X179787914Y-192285771D02*
X179716485Y-192357200D01*
X179787914Y-192428629D01*
X179859342Y-192357200D01*
X179787914Y-192285771D01*
X179787914Y-192428629D01*
X180359343Y-192785771D02*
X181145057Y-192785771D01*
X180359343Y-193785771D01*
X181145057Y-193785771D01*
X182287914Y-193714343D02*
X182145057Y-193785771D01*
X181859343Y-193785771D01*
X181716486Y-193714343D01*
X181645057Y-193571486D01*
X181645057Y-193000057D01*
X181716486Y-192857200D01*
X181859343Y-192785771D01*
X182145057Y-192785771D01*
X182287914Y-192857200D01*
X182359343Y-193000057D01*
X182359343Y-193142914D01*
X181645057Y-193285771D01*
X183002200Y-193642914D02*
X183073628Y-193714343D01*
X183002200Y-193785771D01*
X182930771Y-193714343D01*
X183002200Y-193642914D01*
X183002200Y-193785771D01*
X183002200Y-192857200D02*
X183073628Y-192928629D01*
X183002200Y-193000057D01*
X182930771Y-192928629D01*
X183002200Y-192857200D01*
X183002200Y-193000057D01*
X184787914Y-193357200D02*
X185502200Y-193357200D01*
X184645057Y-193785771D02*
X185145057Y-192285771D01*
X185645057Y-193785771D01*
X186787914Y-192785771D02*
X186787914Y-193785771D01*
X186430771Y-192214343D02*
X186073628Y-193285771D01*
X187002200Y-193285771D01*
D10*
D11*
X263359343Y-196585771D02*
X263359343Y-195085771D01*
X264716486Y-196585771D02*
X264716486Y-195085771D01*
X264716486Y-196514343D02*
X264573629Y-196585771D01*
X264287915Y-196585771D01*
X264145057Y-196514343D01*
X264073629Y-196442914D01*
X264002200Y-196300057D01*
X264002200Y-195871486D01*
X264073629Y-195728629D01*
X264145057Y-195657200D01*
X264287915Y-195585771D01*
X264573629Y-195585771D01*
X264716486Y-195657200D01*
X265430772Y-196442914D02*
X265502200Y-196514343D01*
X265430772Y-196585771D01*
X265359343Y-196514343D01*
X265430772Y-196442914D01*
X265430772Y-196585771D01*
X265430772Y-195657200D02*
X265502200Y-195728629D01*
X265430772Y-195800057D01*
X265359343Y-195728629D01*
X265430772Y-195657200D01*
X265430772Y-195800057D01*
X268073629Y-196585771D02*
X267216486Y-196585771D01*
X267645058Y-196585771D02*
X267645058Y-195085771D01*
X267502201Y-195300057D01*
X267359343Y-195442914D01*
X267216486Y-195514343D01*
X269787914Y-195014343D02*
X268502200Y-196942914D01*
X271073629Y-196585771D02*
X270216486Y-196585771D01*
X270645058Y-196585771D02*
X270645058Y-195085771D01*
X270502201Y-195300057D01*
X270359343Y-195442914D01*
X270216486Y-195514343D01*
D10*
D11*
X177002200Y-187507200D02*
X285002200Y-187507200D01*
D10*
D13*
X178454581Y-188211962D02*
X179597438Y-188211962D01*
X178776010Y-190211962D02*
X179026010Y-188211962D01*
X180014105Y-190211962D02*
X180180771Y-188878629D01*
X180264105Y-188211962D02*
X180156962Y-188307200D01*
X180240295Y-188402438D01*
X180347439Y-188307200D01*
X180264105Y-188211962D01*
X180240295Y-188402438D01*
X180847438Y-188878629D02*
X181609343Y-188878629D01*
X181216486Y-188211962D02*
X181002200Y-189926248D01*
X181073630Y-190116724D01*
X181252201Y-190211962D01*
X181442677Y-190211962D01*
X182395058Y-190211962D02*
X182216487Y-190116724D01*
X182145057Y-189926248D01*
X182359343Y-188211962D01*
X183930772Y-190116724D02*
X183728391Y-190211962D01*
X183347439Y-190211962D01*
X183168867Y-190116724D01*
X183097438Y-189926248D01*
X183192676Y-189164343D01*
X183311724Y-188973867D01*
X183514105Y-188878629D01*
X183895057Y-188878629D01*
X184073629Y-188973867D01*
X184145057Y-189164343D01*
X184121248Y-189354819D01*
X183145057Y-189545295D01*
X184895057Y-190021486D02*
X184978392Y-190116724D01*
X184871248Y-190211962D01*
X184787915Y-190116724D01*
X184895057Y-190021486D01*
X184871248Y-190211962D01*
X185026010Y-188973867D02*
X185109344Y-189069105D01*
X185002200Y-189164343D01*
X184918867Y-189069105D01*
X185026010Y-188973867D01*
X185002200Y-189164343D01*
X187347439Y-190211962D02*
X187597439Y-188211962D01*
X188490297Y-190211962D01*
X188740297Y-188211962D01*
X190585535Y-190211962D02*
X190037915Y-189259581D01*
X189442677Y-190211962D02*
X189692677Y-188211962D01*
X190454582Y-188211962D01*
X190633153Y-188307200D01*
X190716487Y-188402438D01*
X190787916Y-188592914D01*
X190752201Y-188878629D01*
X190633154Y-189069105D01*
X190526010Y-189164343D01*
X190323629Y-189259581D01*
X189561724Y-189259581D01*
X192240296Y-189164343D02*
X191573629Y-189164343D01*
X191442677Y-190211962D02*
X191692677Y-188211962D01*
X192645058Y-188211962D01*
X193287915Y-188402438D02*
X193395058Y-188307200D01*
X193597440Y-188211962D01*
X194073630Y-188211962D01*
X194252201Y-188307200D01*
X194335534Y-188402438D01*
X194406964Y-188592914D01*
X194383154Y-188783390D01*
X194252201Y-189069105D01*
X192966487Y-190211962D01*
X194204583Y-190211962D01*
X196085534Y-188878629D02*
X195918868Y-190211962D01*
X195704583Y-188116724D02*
X195049820Y-189545295D01*
X196287916Y-189545295D01*
X198490297Y-190211962D02*
X198740297Y-188211962D01*
X198645059Y-188973867D02*
X198847440Y-188878629D01*
X199228392Y-188878629D01*
X199406964Y-188973867D01*
X199490297Y-189069105D01*
X199561725Y-189259581D01*
X199490297Y-189831010D01*
X199371249Y-190021486D01*
X199264107Y-190116724D01*
X199061726Y-190211962D01*
X198680774Y-190211962D01*
X198502202Y-190116724D01*
X200299821Y-190211962D02*
X200466487Y-188878629D01*
X200418868Y-189259581D02*
X200537917Y-189069105D01*
X200645060Y-188973867D01*
X200847440Y-188878629D01*
X201037916Y-188878629D01*
X202311726Y-190116724D02*
X202109345Y-190211962D01*
X201728393Y-190211962D01*
X201549821Y-190116724D01*
X201478392Y-189926248D01*
X201573630Y-189164343D01*
X201692678Y-188973867D01*
X201895059Y-188878629D01*
X202276011Y-188878629D01*
X202454583Y-188973867D01*
X202526011Y-189164343D01*
X202502202Y-189354819D01*
X201526011Y-189545295D01*
X204109345Y-190211962D02*
X204240297Y-189164343D01*
X204168869Y-188973867D01*
X203990297Y-188878629D01*
X203609345Y-188878629D01*
X203406964Y-188973867D01*
X204121250Y-190116724D02*
X203918869Y-190211962D01*
X203442679Y-190211962D01*
X203264107Y-190116724D01*
X203192678Y-189926248D01*
X203216488Y-189735771D01*
X203335535Y-189545295D01*
X203537917Y-189450057D01*
X204014107Y-189450057D01*
X204216488Y-189354819D01*
X205061726Y-190211962D02*
X205311726Y-188211962D01*
X205347441Y-189450057D02*
X205823631Y-190211962D01*
X205990297Y-188878629D02*
X205133154Y-189640533D01*
X206966489Y-190211962D02*
X206787918Y-190116724D01*
X206704583Y-190021486D01*
X206633155Y-189831010D01*
X206704583Y-189259581D01*
X206823631Y-189069105D01*
X206930775Y-188973867D01*
X207133155Y-188878629D01*
X207418869Y-188878629D01*
X207597441Y-188973867D01*
X207680774Y-189069105D01*
X207752202Y-189259581D01*
X207680774Y-189831010D01*
X207561726Y-190021486D01*
X207454584Y-190116724D01*
X207252203Y-190211962D01*
X206966489Y-190211962D01*
X209514107Y-188878629D02*
X209347441Y-190211962D01*
X208656964Y-188878629D02*
X208526012Y-189926248D01*
X208597442Y-190116724D01*
X208776013Y-190211962D01*
X209061727Y-190211962D01*
X209264108Y-190116724D01*
X209371250Y-190021486D01*
X210180774Y-188878629D02*
X210942679Y-188878629D01*
X210549822Y-188211962D02*
X210335536Y-189926248D01*
X210406966Y-190116724D01*
X210585537Y-190211962D01*
X210776013Y-190211962D01*
X212847441Y-188878629D02*
X213609346Y-188878629D01*
X212966489Y-190211962D02*
X213180775Y-188497676D01*
X213299823Y-188307200D01*
X213502204Y-188211962D01*
X213692680Y-188211962D01*
X214395061Y-190211962D02*
X214216490Y-190116724D01*
X214133155Y-190021486D01*
X214061727Y-189831010D01*
X214133155Y-189259581D01*
X214252203Y-189069105D01*
X214359347Y-188973867D01*
X214561727Y-188878629D01*
X214847441Y-188878629D01*
X215026013Y-188973867D01*
X215109346Y-189069105D01*
X215180774Y-189259581D01*
X215109346Y-189831010D01*
X214990298Y-190021486D01*
X214883156Y-190116724D01*
X214680775Y-190211962D01*
X214395061Y-190211962D01*
X215918870Y-190211962D02*
X216085536Y-188878629D01*
X216037917Y-189259581D02*
X216156966Y-189069105D01*
X216264109Y-188973867D01*
X216466489Y-188878629D01*
X216656965Y-188878629D01*
X218680775Y-190211962D02*
X218930775Y-188211962D01*
X218835537Y-188973867D02*
X219037918Y-188878629D01*
X219418870Y-188878629D01*
X219597442Y-188973867D01*
X219680775Y-189069105D01*
X219752203Y-189259581D01*
X219680775Y-189831010D01*
X219561727Y-190021486D01*
X219454585Y-190116724D01*
X219252204Y-190211962D01*
X218871252Y-190211962D01*
X218692680Y-190116724D01*
X220490299Y-190211962D02*
X220656965Y-188878629D01*
X220609346Y-189259581D02*
X220728395Y-189069105D01*
X220835538Y-188973867D01*
X221037918Y-188878629D01*
X221228394Y-188878629D01*
X222502204Y-190116724D02*
X222299823Y-190211962D01*
X221918871Y-190211962D01*
X221740299Y-190116724D01*
X221668870Y-189926248D01*
X221764108Y-189164343D01*
X221883156Y-188973867D01*
X222085537Y-188878629D01*
X222466489Y-188878629D01*
X222645061Y-188973867D01*
X222716489Y-189164343D01*
X222692680Y-189354819D01*
X221716489Y-189545295D01*
X224299823Y-190211962D02*
X224430775Y-189164343D01*
X224359347Y-188973867D01*
X224180775Y-188878629D01*
X223799823Y-188878629D01*
X223597442Y-188973867D01*
X224311728Y-190116724D02*
X224109347Y-190211962D01*
X223633157Y-190211962D01*
X223454585Y-190116724D01*
X223383156Y-189926248D01*
X223406966Y-189735771D01*
X223526013Y-189545295D01*
X223728395Y-189450057D01*
X224204585Y-189450057D01*
X224406966Y-189354819D01*
X226109347Y-190211962D02*
X226359347Y-188211962D01*
X226121252Y-190116724D02*
X225918871Y-190211962D01*
X225537919Y-190211962D01*
X225359348Y-190116724D01*
X225276013Y-190021486D01*
X225204585Y-189831010D01*
X225276013Y-189259581D01*
X225395061Y-189069105D01*
X225502205Y-188973867D01*
X225704585Y-188878629D01*
X226085537Y-188878629D01*
X226264109Y-188973867D01*
X227061728Y-190211962D02*
X227311728Y-188211962D01*
X227216490Y-188973867D02*
X227418871Y-188878629D01*
X227799823Y-188878629D01*
X227978395Y-188973867D01*
X228061728Y-189069105D01*
X228133156Y-189259581D01*
X228061728Y-189831010D01*
X227942680Y-190021486D01*
X227835538Y-190116724D01*
X227633157Y-190211962D01*
X227252205Y-190211962D01*
X227073633Y-190116724D01*
X229156967Y-190211962D02*
X228978396Y-190116724D01*
X228895061Y-190021486D01*
X228823633Y-189831010D01*
X228895061Y-189259581D01*
X229014109Y-189069105D01*
X229121253Y-188973867D01*
X229323633Y-188878629D01*
X229609347Y-188878629D01*
X229787919Y-188973867D01*
X229871252Y-189069105D01*
X229942680Y-189259581D01*
X229871252Y-189831010D01*
X229752204Y-190021486D01*
X229645062Y-190116724D01*
X229442681Y-190211962D01*
X229156967Y-190211962D01*
X231537919Y-190211962D02*
X231668871Y-189164343D01*
X231597443Y-188973867D01*
X231418871Y-188878629D01*
X231037919Y-188878629D01*
X230835538Y-188973867D01*
X231549824Y-190116724D02*
X231347443Y-190211962D01*
X230871253Y-190211962D01*
X230692681Y-190116724D01*
X230621252Y-189926248D01*
X230645062Y-189735771D01*
X230764109Y-189545295D01*
X230966491Y-189450057D01*
X231442681Y-189450057D01*
X231645062Y-189354819D01*
X232490300Y-190211962D02*
X232656966Y-188878629D01*
X232609347Y-189259581D02*
X232728396Y-189069105D01*
X232835539Y-188973867D01*
X233037919Y-188878629D01*
X233228395Y-188878629D01*
X234585538Y-190211962D02*
X234835538Y-188211962D01*
X234597443Y-190116724D02*
X234395062Y-190211962D01*
X234014110Y-190211962D01*
X233835539Y-190116724D01*
X233752204Y-190021486D01*
X233680776Y-189831010D01*
X233752204Y-189259581D01*
X233871252Y-189069105D01*
X233978396Y-188973867D01*
X234180776Y-188878629D01*
X234561728Y-188878629D01*
X234740300Y-188973867D01*
X237061729Y-190211962D02*
X237311729Y-188211962D01*
X238073634Y-188211962D01*
X238252205Y-188307200D01*
X238335539Y-188402438D01*
X238406968Y-188592914D01*
X238371253Y-188878629D01*
X238252206Y-189069105D01*
X238145062Y-189164343D01*
X237942681Y-189259581D01*
X237180776Y-189259581D01*
X240228396Y-190021486D02*
X240121254Y-190116724D01*
X239823634Y-190211962D01*
X239633158Y-190211962D01*
X239359349Y-190116724D01*
X239192682Y-189926248D01*
X239121253Y-189735771D01*
X239073634Y-189354819D01*
X239109348Y-189069105D01*
X239252205Y-188688152D01*
X239371254Y-188497676D01*
X239585539Y-188307200D01*
X239883158Y-188211962D01*
X240073634Y-188211962D01*
X240347444Y-188307200D01*
X240430777Y-188402438D01*
X241859348Y-189164343D02*
X242133157Y-189259581D01*
X242216492Y-189354819D01*
X242287920Y-189545295D01*
X242252206Y-189831010D01*
X242133158Y-190021486D01*
X242026015Y-190116724D01*
X241823634Y-190211962D01*
X241061729Y-190211962D01*
X241311729Y-188211962D01*
X241978396Y-188211962D01*
X242156967Y-188307200D01*
X242240300Y-188402438D01*
X242311730Y-188592914D01*
X242287920Y-188783390D01*
X242168872Y-188973867D01*
X242061729Y-189069105D01*
X241859348Y-189164343D01*
X241192681Y-189164343D01*
D10*
D11*
X178859343Y-185600057D02*
X178359343Y-185600057D01*
X178359343Y-186385771D02*
X178359343Y-184885771D01*
X179073629Y-184885771D01*
X179645057Y-186385771D02*
X179645057Y-185385771D01*
X179645057Y-184885771D02*
X179573628Y-184957200D01*
X179645057Y-185028629D01*
X179716485Y-184957200D01*
X179645057Y-184885771D01*
X179645057Y-185028629D01*
X180573629Y-186385771D02*
X180430771Y-186314343D01*
X180359343Y-186171486D01*
X180359343Y-184885771D01*
X181716485Y-186314343D02*
X181573628Y-186385771D01*
X181287914Y-186385771D01*
X181145057Y-186314343D01*
X181073628Y-186171486D01*
X181073628Y-185600057D01*
X181145057Y-185457200D01*
X181287914Y-185385771D01*
X181573628Y-185385771D01*
X181716485Y-185457200D01*
X181787914Y-185600057D01*
X181787914Y-185742914D01*
X181073628Y-185885771D01*
X182430771Y-186242914D02*
X182502199Y-186314343D01*
X182430771Y-186385771D01*
X182359342Y-186314343D01*
X182430771Y-186242914D01*
X182430771Y-186385771D01*
X182430771Y-185457200D02*
X182502199Y-185528629D01*
X182430771Y-185600057D01*
X182359342Y-185528629D01*
X182430771Y-185457200D01*
X182430771Y-185600057D01*
X184287914Y-185385771D02*
X184287914Y-186385771D01*
X184287914Y-185528629D02*
X184359342Y-185457200D01*
X184502200Y-185385771D01*
X184716485Y-185385771D01*
X184859342Y-185457200D01*
X184930771Y-185600057D01*
X184930771Y-186385771D01*
X185645057Y-186385771D02*
X185645057Y-185385771D01*
X185645057Y-185671486D02*
X185716485Y-185528629D01*
X185787914Y-185457200D01*
X185930771Y-185385771D01*
X186073628Y-185385771D01*
X186359342Y-185385771D02*
X186930771Y-185385771D01*
X186573628Y-186385771D02*
X186573628Y-185100057D01*
X186645056Y-184957200D01*
X186787914Y-184885771D01*
X186930771Y-184885771D01*
X187359342Y-185028629D02*
X187430771Y-184957200D01*
X187573628Y-184885771D01*
X187930771Y-184885771D01*
X188073628Y-184957200D01*
X188145057Y-185028629D01*
X188216485Y-185171486D01*
X188216485Y-185314343D01*
X188145057Y-185528629D01*
X187287914Y-186385771D01*
X188216485Y-186385771D01*
X189502199Y-185385771D02*
X189502199Y-186385771D01*
X189145056Y-184814343D02*
X188787913Y-185885771D01*
X189716485Y-185885771D01*
X189930770Y-186528629D02*
X191073627Y-186528629D01*
X191430770Y-186385771D02*
X191430770Y-184885771D01*
X191430770Y-185457200D02*
X191573627Y-185385771D01*
X191859341Y-185385771D01*
X192002198Y-185457200D01*
X192073627Y-185528629D01*
X192145056Y-185671486D01*
X192145056Y-186100057D01*
X192073627Y-186242914D01*
X192002198Y-186314343D01*
X191859341Y-186385771D01*
X191573627Y-186385771D01*
X191430770Y-186314343D01*
X192787913Y-186385771D02*
X192787913Y-185385771D01*
X192787913Y-185671486D02*
X192859341Y-185528629D01*
X192930770Y-185457200D01*
X193073627Y-185385771D01*
X193216484Y-185385771D01*
X194287912Y-186314343D02*
X194145055Y-186385771D01*
X193859341Y-186385771D01*
X193716484Y-186314343D01*
X193645055Y-186171486D01*
X193645055Y-185600057D01*
X193716484Y-185457200D01*
X193859341Y-185385771D01*
X194145055Y-185385771D01*
X194287912Y-185457200D01*
X194359341Y-185600057D01*
X194359341Y-185742914D01*
X193645055Y-185885771D01*
X195645055Y-186385771D02*
X195645055Y-185600057D01*
X195573626Y-185457200D01*
X195430769Y-185385771D01*
X195145055Y-185385771D01*
X195002198Y-185457200D01*
X195645055Y-186314343D02*
X195502198Y-186385771D01*
X195145055Y-186385771D01*
X195002198Y-186314343D01*
X194930769Y-186171486D01*
X194930769Y-186028629D01*
X195002198Y-185885771D01*
X195145055Y-185814343D01*
X195502198Y-185814343D01*
X195645055Y-185742914D01*
X196359341Y-186385771D02*
X196359341Y-184885771D01*
X196502198Y-185814343D02*
X196930769Y-186385771D01*
X196930769Y-185385771D02*
X196359341Y-185957200D01*
X197787913Y-186385771D02*
X197645055Y-186314343D01*
X197573627Y-186242914D01*
X197502198Y-186100057D01*
X197502198Y-185671486D01*
X197573627Y-185528629D01*
X197645055Y-185457200D01*
X197787913Y-185385771D01*
X198002198Y-185385771D01*
X198145055Y-185457200D01*
X198216484Y-185528629D01*
X198287913Y-185671486D01*
X198287913Y-186100057D01*
X198216484Y-186242914D01*
X198145055Y-186314343D01*
X198002198Y-186385771D01*
X197787913Y-186385771D01*
X199573627Y-185385771D02*
X199573627Y-186385771D01*
X198930770Y-185385771D02*
X198930770Y-186171486D01*
X199002198Y-186314343D01*
X199145056Y-186385771D01*
X199359341Y-186385771D01*
X199502198Y-186314343D01*
X199573627Y-186242914D01*
X200073627Y-185385771D02*
X200645056Y-185385771D01*
X200287913Y-184885771D02*
X200287913Y-186171486D01*
X200359341Y-186314343D01*
X200502199Y-186385771D01*
X200645056Y-186385771D01*
X200787913Y-186528629D02*
X201930770Y-186528629D01*
X202073627Y-185385771D02*
X202645056Y-185385771D01*
X202287913Y-186385771D02*
X202287913Y-185100057D01*
X202359341Y-184957200D01*
X202502199Y-184885771D01*
X202645056Y-184885771D01*
X203359342Y-186385771D02*
X203216484Y-186314343D01*
X203145056Y-186242914D01*
X203073627Y-186100057D01*
X203073627Y-185671486D01*
X203145056Y-185528629D01*
X203216484Y-185457200D01*
X203359342Y-185385771D01*
X203573627Y-185385771D01*
X203716484Y-185457200D01*
X203787913Y-185528629D01*
X203859342Y-185671486D01*
X203859342Y-186100057D01*
X203787913Y-186242914D01*
X203716484Y-186314343D01*
X203573627Y-186385771D01*
X203359342Y-186385771D01*
X204502199Y-186385771D02*
X204502199Y-185385771D01*
X204502199Y-185671486D02*
X204573627Y-185528629D01*
X204645056Y-185457200D01*
X204787913Y-185385771D01*
X204930770Y-185385771D01*
X205073627Y-186528629D02*
X206216484Y-186528629D01*
X206573627Y-186385771D02*
X206573627Y-184885771D01*
X206573627Y-185457200D02*
X206716484Y-185385771D01*
X207002198Y-185385771D01*
X207145055Y-185457200D01*
X207216484Y-185528629D01*
X207287913Y-185671486D01*
X207287913Y-186100057D01*
X207216484Y-186242914D01*
X207145055Y-186314343D01*
X207002198Y-186385771D01*
X206716484Y-186385771D01*
X206573627Y-186314343D01*
X207930770Y-186385771D02*
X207930770Y-185385771D01*
X207930770Y-185671486D02*
X208002198Y-185528629D01*
X208073627Y-185457200D01*
X208216484Y-185385771D01*
X208359341Y-185385771D01*
X209430769Y-186314343D02*
X209287912Y-186385771D01*
X209002198Y-186385771D01*
X208859341Y-186314343D01*
X208787912Y-186171486D01*
X208787912Y-185600057D01*
X208859341Y-185457200D01*
X209002198Y-185385771D01*
X209287912Y-185385771D01*
X209430769Y-185457200D01*
X209502198Y-185600057D01*
X209502198Y-185742914D01*
X208787912Y-185885771D01*
X210787912Y-186385771D02*
X210787912Y-185600057D01*
X210716483Y-185457200D01*
X210573626Y-185385771D01*
X210287912Y-185385771D01*
X210145055Y-185457200D01*
X210787912Y-186314343D02*
X210645055Y-186385771D01*
X210287912Y-186385771D01*
X210145055Y-186314343D01*
X210073626Y-186171486D01*
X210073626Y-186028629D01*
X210145055Y-185885771D01*
X210287912Y-185814343D01*
X210645055Y-185814343D01*
X210787912Y-185742914D01*
X212145055Y-186385771D02*
X212145055Y-184885771D01*
X212145055Y-186314343D02*
X212002198Y-186385771D01*
X211716484Y-186385771D01*
X211573626Y-186314343D01*
X211502198Y-186242914D01*
X211430769Y-186100057D01*
X211430769Y-185671486D01*
X211502198Y-185528629D01*
X211573626Y-185457200D01*
X211716484Y-185385771D01*
X212002198Y-185385771D01*
X212145055Y-185457200D01*
X212859341Y-186385771D02*
X212859341Y-184885771D01*
X212859341Y-185457200D02*
X213002198Y-185385771D01*
X213287912Y-185385771D01*
X213430769Y-185457200D01*
X213502198Y-185528629D01*
X213573627Y-185671486D01*
X213573627Y-186100057D01*
X213502198Y-186242914D01*
X213430769Y-186314343D01*
X213287912Y-186385771D01*
X213002198Y-186385771D01*
X212859341Y-186314343D01*
X214430770Y-186385771D02*
X214287912Y-186314343D01*
X214216484Y-186242914D01*
X214145055Y-186100057D01*
X214145055Y-185671486D01*
X214216484Y-185528629D01*
X214287912Y-185457200D01*
X214430770Y-185385771D01*
X214645055Y-185385771D01*
X214787912Y-185457200D01*
X214859341Y-185528629D01*
X214930770Y-185671486D01*
X214930770Y-186100057D01*
X214859341Y-186242914D01*
X214787912Y-186314343D01*
X214645055Y-186385771D01*
X214430770Y-186385771D01*
X216216484Y-186385771D02*
X216216484Y-185600057D01*
X216145055Y-185457200D01*
X216002198Y-185385771D01*
X215716484Y-185385771D01*
X215573627Y-185457200D01*
X216216484Y-186314343D02*
X216073627Y-186385771D01*
X215716484Y-186385771D01*
X215573627Y-186314343D01*
X215502198Y-186171486D01*
X215502198Y-186028629D01*
X215573627Y-185885771D01*
X215716484Y-185814343D01*
X216073627Y-185814343D01*
X216216484Y-185742914D01*
X216930770Y-186385771D02*
X216930770Y-185385771D01*
X216930770Y-185671486D02*
X217002198Y-185528629D01*
X217073627Y-185457200D01*
X217216484Y-185385771D01*
X217359341Y-185385771D01*
X218502198Y-186385771D02*
X218502198Y-184885771D01*
X218502198Y-186314343D02*
X218359341Y-186385771D01*
X218073627Y-186385771D01*
X217930769Y-186314343D01*
X217859341Y-186242914D01*
X217787912Y-186100057D01*
X217787912Y-185671486D01*
X217859341Y-185528629D01*
X217930769Y-185457200D01*
X218073627Y-185385771D01*
X218359341Y-185385771D01*
X218502198Y-185457200D01*
X219216484Y-186242914D02*
X219287912Y-186314343D01*
X219216484Y-186385771D01*
X219145055Y-186314343D01*
X219216484Y-186242914D01*
X219216484Y-186385771D01*
X219930770Y-186385771D02*
X219930770Y-184885771D01*
X220073627Y-185814343D02*
X220502198Y-186385771D01*
X220502198Y-185385771D02*
X219930770Y-185957200D01*
X221145056Y-186385771D02*
X221145056Y-185385771D01*
X221145056Y-184885771D02*
X221073627Y-184957200D01*
X221145056Y-185028629D01*
X221216484Y-184957200D01*
X221145056Y-184885771D01*
X221145056Y-185028629D01*
X222502199Y-186314343D02*
X222359342Y-186385771D01*
X222073628Y-186385771D01*
X221930770Y-186314343D01*
X221859342Y-186242914D01*
X221787913Y-186100057D01*
X221787913Y-185671486D01*
X221859342Y-185528629D01*
X221930770Y-185457200D01*
X222073628Y-185385771D01*
X222359342Y-185385771D01*
X222502199Y-185457200D01*
X223787913Y-186385771D02*
X223787913Y-185600057D01*
X223716484Y-185457200D01*
X223573627Y-185385771D01*
X223287913Y-185385771D01*
X223145056Y-185457200D01*
X223787913Y-186314343D02*
X223645056Y-186385771D01*
X223287913Y-186385771D01*
X223145056Y-186314343D01*
X223073627Y-186171486D01*
X223073627Y-186028629D01*
X223145056Y-185885771D01*
X223287913Y-185814343D01*
X223645056Y-185814343D01*
X223787913Y-185742914D01*
X225145056Y-186385771D02*
X225145056Y-184885771D01*
X225145056Y-186314343D02*
X225002199Y-186385771D01*
X224716485Y-186385771D01*
X224573627Y-186314343D01*
X224502199Y-186242914D01*
X224430770Y-186100057D01*
X224430770Y-185671486D01*
X224502199Y-185528629D01*
X224573627Y-185457200D01*
X224716485Y-185385771D01*
X225002199Y-185385771D01*
X225145056Y-185457200D01*
X225502199Y-186528629D02*
X226645056Y-186528629D01*
X227002199Y-185385771D02*
X227002199Y-186885771D01*
X227002199Y-185457200D02*
X227145056Y-185385771D01*
X227430770Y-185385771D01*
X227573627Y-185457200D01*
X227645056Y-185528629D01*
X227716485Y-185671486D01*
X227716485Y-186100057D01*
X227645056Y-186242914D01*
X227573627Y-186314343D01*
X227430770Y-186385771D01*
X227145056Y-186385771D01*
X227002199Y-186314343D01*
X229002199Y-186314343D02*
X228859342Y-186385771D01*
X228573628Y-186385771D01*
X228430770Y-186314343D01*
X228359342Y-186242914D01*
X228287913Y-186100057D01*
X228287913Y-185671486D01*
X228359342Y-185528629D01*
X228430770Y-185457200D01*
X228573628Y-185385771D01*
X228859342Y-185385771D01*
X229002199Y-185457200D01*
X229645056Y-186385771D02*
X229645056Y-184885771D01*
X229645056Y-185457200D02*
X229787913Y-185385771D01*
X230073627Y-185385771D01*
X230216484Y-185457200D01*
X230287913Y-185528629D01*
X230359342Y-185671486D01*
X230359342Y-186100057D01*
X230287913Y-186242914D01*
X230216484Y-186314343D01*
X230073627Y-186385771D01*
X229787913Y-186385771D01*
X229645056Y-186314343D01*
D10*
D11*
X177002200Y-181507200D02*
X285002200Y-181507200D01*
D10*
D11*
X178287914Y-183614343D02*
X178502200Y-183685771D01*
X178859343Y-183685771D01*
X179002200Y-183614343D01*
X179073629Y-183542914D01*
X179145057Y-183400057D01*
X179145057Y-183257200D01*
X179073629Y-183114343D01*
X179002200Y-183042914D01*
X178859343Y-182971486D01*
X178573629Y-182900057D01*
X178430771Y-182828629D01*
X178359343Y-182757200D01*
X178287914Y-182614343D01*
X178287914Y-182471486D01*
X178359343Y-182328629D01*
X178430771Y-182257200D01*
X178573629Y-182185771D01*
X178930771Y-182185771D01*
X179145057Y-182257200D01*
X179787914Y-183685771D02*
X179787914Y-182185771D01*
X180430771Y-183685771D02*
X180430771Y-182900057D01*
X180359342Y-182757200D01*
X180216485Y-182685771D01*
X180002200Y-182685771D01*
X179859342Y-182757200D01*
X179787914Y-182828629D01*
X181716485Y-183614343D02*
X181573628Y-183685771D01*
X181287914Y-183685771D01*
X181145057Y-183614343D01*
X181073628Y-183471486D01*
X181073628Y-182900057D01*
X181145057Y-182757200D01*
X181287914Y-182685771D01*
X181573628Y-182685771D01*
X181716485Y-182757200D01*
X181787914Y-182900057D01*
X181787914Y-183042914D01*
X181073628Y-183185771D01*
X183002199Y-183614343D02*
X182859342Y-183685771D01*
X182573628Y-183685771D01*
X182430771Y-183614343D01*
X182359342Y-183471486D01*
X182359342Y-182900057D01*
X182430771Y-182757200D01*
X182573628Y-182685771D01*
X182859342Y-182685771D01*
X183002199Y-182757200D01*
X183073628Y-182900057D01*
X183073628Y-183042914D01*
X182359342Y-183185771D01*
X183502199Y-182685771D02*
X184073628Y-182685771D01*
X183716485Y-182185771D02*
X183716485Y-183471486D01*
X183787913Y-183614343D01*
X183930771Y-183685771D01*
X184073628Y-183685771D01*
X184573628Y-183542914D02*
X184645056Y-183614343D01*
X184573628Y-183685771D01*
X184502199Y-183614343D01*
X184573628Y-183542914D01*
X184573628Y-183685771D01*
X184573628Y-182757200D02*
X184645056Y-182828629D01*
X184573628Y-182900057D01*
X184502199Y-182828629D01*
X184573628Y-182757200D01*
X184573628Y-182900057D01*
D10*
D12*
X178359343Y-179900057D02*
X178859343Y-179900057D01*
X179073629Y-180685771D02*
X178359343Y-180685771D01*
X178359343Y-179185771D01*
X179073629Y-179185771D01*
X179716486Y-180685771D02*
X179716486Y-179685771D01*
X179716486Y-179971486D02*
X179787914Y-179828629D01*
X179859343Y-179757200D01*
X180002200Y-179685771D01*
X180145057Y-179685771D01*
X180502200Y-179685771D02*
X180787914Y-180685771D01*
X181073628Y-179971486D01*
X181359343Y-180685771D01*
X181645057Y-179685771D01*
X182216486Y-180685771D02*
X182216486Y-179685771D01*
X182216486Y-179185771D02*
X182145057Y-179257200D01*
X182216486Y-179328629D01*
X182287914Y-179257200D01*
X182216486Y-179185771D01*
X182216486Y-179328629D01*
X182930772Y-179685771D02*
X182930772Y-180685771D01*
X182930772Y-179828629D02*
X183002200Y-179757200D01*
X183145058Y-179685771D01*
X183359343Y-179685771D01*
X183502200Y-179757200D01*
X183573629Y-179900057D01*
X183573629Y-180685771D01*
X185359343Y-180257200D02*
X186073629Y-180257200D01*
X185216486Y-180685771D02*
X185716486Y-179185771D01*
X186216486Y-180685771D01*
X186716486Y-180685771D02*
X186716486Y-179185771D01*
X187573629Y-180685771D01*
X187573629Y-179185771D01*
X188287915Y-180685771D02*
X188287915Y-179185771D01*
X188645058Y-179185771D01*
X188859343Y-179257200D01*
X189002201Y-179400057D01*
X189073629Y-179542914D01*
X189145058Y-179828629D01*
X189145058Y-180042914D01*
X189073629Y-180328629D01*
X189002201Y-180471486D01*
X188859343Y-180614343D01*
X188645058Y-180685771D01*
X188287915Y-180685771D01*
X190645058Y-180685771D02*
X190145058Y-179971486D01*
X189787915Y-180685771D02*
X189787915Y-179185771D01*
X190359343Y-179185771D01*
X190502201Y-179257200D01*
X190573629Y-179328629D01*
X190645058Y-179471486D01*
X190645058Y-179685771D01*
X190573629Y-179828629D01*
X190502201Y-179900057D01*
X190359343Y-179971486D01*
X189787915Y-179971486D01*
X191287915Y-179900057D02*
X191787915Y-179900057D01*
X192002201Y-180685771D02*
X191287915Y-180685771D01*
X191287915Y-179185771D01*
X192002201Y-179185771D01*
D10*
D11*
X197002200Y-191507200D02*
X197002200Y-194507200D01*
D10*
D11*
X261002200Y-191507200D02*
X261002200Y-198007200D01*
D14*
X136300330Y-107123667D02*
X136300330Y-106423667D01*
X136133664Y-106423667D01*
X136033664Y-106457000D01*
X135966997Y-106523667D01*
X135933664Y-106590333D01*
X135900330Y-106723667D01*
X135900330Y-106823667D01*
X135933664Y-106957000D01*
X135966997Y-107023667D01*
X136033664Y-107090333D01*
X136133664Y-107123667D01*
X136300330Y-107123667D01*
X135333664Y-107090333D02*
X135400330Y-107123667D01*
X135533664Y-107123667D01*
X135600330Y-107090333D01*
X135633664Y-107023667D01*
X135633664Y-106757000D01*
X135600330Y-106690333D01*
X135533664Y-106657000D01*
X135400330Y-106657000D01*
X135333664Y-106690333D01*
X135300330Y-106757000D01*
X135300330Y-106823667D01*
X135633664Y-106890333D01*
X135033664Y-107090333D02*
X134966997Y-107123667D01*
X134833664Y-107123667D01*
X134766997Y-107090333D01*
X134733664Y-107023667D01*
X134733664Y-106990333D01*
X134766997Y-106923667D01*
X134833664Y-106890333D01*
X134933664Y-106890333D01*
X135000330Y-106857000D01*
X135033664Y-106790333D01*
X135033664Y-106757000D01*
X135000330Y-106690333D01*
X134933664Y-106657000D01*
X134833664Y-106657000D01*
X134766997Y-106690333D01*
X134433663Y-107123667D02*
X134433663Y-106657000D01*
X134433663Y-106423667D02*
X134466997Y-106457000D01*
X134433663Y-106490333D01*
X134400330Y-106457000D01*
X134433663Y-106423667D01*
X134433663Y-106490333D01*
X133800330Y-106657000D02*
X133800330Y-107223667D01*
X133833664Y-107290333D01*
X133866997Y-107323667D01*
X133933664Y-107357000D01*
X134033664Y-107357000D01*
X134100330Y-107323667D01*
X133800330Y-107090333D02*
X133866997Y-107123667D01*
X134000330Y-107123667D01*
X134066997Y-107090333D01*
X134100330Y-107057000D01*
X134133664Y-106990333D01*
X134133664Y-106790333D01*
X134100330Y-106723667D01*
X134066997Y-106690333D01*
X134000330Y-106657000D01*
X133866997Y-106657000D01*
X133800330Y-106690333D01*
X133466997Y-106657000D02*
X133466997Y-107123667D01*
X133466997Y-106723667D02*
X133433664Y-106690333D01*
X133366997Y-106657000D01*
X133266997Y-106657000D01*
X133200331Y-106690333D01*
X133166997Y-106757000D01*
X133166997Y-107123667D01*
X132566998Y-107090333D02*
X132633664Y-107123667D01*
X132766998Y-107123667D01*
X132833664Y-107090333D01*
X132866998Y-107023667D01*
X132866998Y-106757000D01*
X132833664Y-106690333D01*
X132766998Y-106657000D01*
X132633664Y-106657000D01*
X132566998Y-106690333D01*
X132533664Y-106757000D01*
X132533664Y-106823667D01*
X132866998Y-106890333D01*
X131933664Y-107123667D02*
X131933664Y-106423667D01*
X131933664Y-107090333D02*
X132000331Y-107123667D01*
X132133664Y-107123667D01*
X132200331Y-107090333D01*
X132233664Y-107057000D01*
X132266998Y-106990333D01*
X132266998Y-106790333D01*
X132233664Y-106723667D01*
X132200331Y-106690333D01*
X132133664Y-106657000D01*
X132000331Y-106657000D01*
X131933664Y-106690333D01*
X131066998Y-107123667D02*
X131066998Y-106423667D01*
X131066998Y-106690333D02*
X131000332Y-106657000D01*
X130866998Y-106657000D01*
X130800332Y-106690333D01*
X130766998Y-106723667D01*
X130733665Y-106790333D01*
X130733665Y-106990333D01*
X130766998Y-107057000D01*
X130800332Y-107090333D01*
X130866998Y-107123667D01*
X131000332Y-107123667D01*
X131066998Y-107090333D01*
X130500332Y-106657000D02*
X130333665Y-107123667D01*
X130166999Y-106657000D02*
X130333665Y-107123667D01*
X130400332Y-107290333D01*
X130433665Y-107323667D01*
X130500332Y-107357000D01*
X129366999Y-106757000D02*
X129133666Y-106757000D01*
X129033666Y-107123667D02*
X129366999Y-107123667D01*
X129366999Y-106423667D01*
X129033666Y-106423667D01*
X128733666Y-107123667D02*
X128733666Y-106657000D01*
X128733666Y-106790333D02*
X128700333Y-106723667D01*
X128667000Y-106690333D01*
X128600333Y-106657000D01*
X128533666Y-106657000D01*
X128367000Y-106657000D02*
X128233667Y-107123667D01*
X128100333Y-106790333D01*
X127967000Y-107123667D01*
X127833667Y-106657000D01*
X127567000Y-107123667D02*
X127567000Y-106657000D01*
X127567000Y-106423667D02*
X127600334Y-106457000D01*
X127567000Y-106490333D01*
X127533667Y-106457000D01*
X127567000Y-106423667D01*
X127567000Y-106490333D01*
X127233667Y-106657000D02*
X127233667Y-107123667D01*
X127233667Y-106723667D02*
X127200334Y-106690333D01*
X127133667Y-106657000D01*
X127033667Y-106657000D01*
X126967001Y-106690333D01*
X126933667Y-106757000D01*
X126933667Y-107123667D01*
X126100335Y-106923667D02*
X125767001Y-106923667D01*
X126167001Y-107123667D02*
X125933668Y-106423667D01*
X125700335Y-107123667D01*
X125467001Y-107123667D02*
X125467001Y-106423667D01*
X125067001Y-107123667D01*
X125067001Y-106423667D01*
X124733668Y-107123667D02*
X124733668Y-106423667D01*
X124567002Y-106423667D01*
X124467002Y-106457000D01*
X124400335Y-106523667D01*
X124367002Y-106590333D01*
X124333668Y-106723667D01*
X124333668Y-106823667D01*
X124367002Y-106957000D01*
X124400335Y-107023667D01*
X124467002Y-107090333D01*
X124567002Y-107123667D01*
X124733668Y-107123667D01*
X123633668Y-107123667D02*
X123867002Y-106790333D01*
X124033668Y-107123667D02*
X124033668Y-106423667D01*
X123767002Y-106423667D01*
X123700335Y-106457000D01*
X123667002Y-106490333D01*
X123633668Y-106557000D01*
X123633668Y-106657000D01*
X123667002Y-106723667D01*
X123700335Y-106757000D01*
X123767002Y-106790333D01*
X124033668Y-106790333D01*
X123333668Y-106757000D02*
X123100335Y-106757000D01*
X123000335Y-107123667D02*
X123333668Y-107123667D01*
X123333668Y-106423667D01*
X123000335Y-106423667D01*
X123100335Y-106157000D02*
X123200335Y-106257000D01*
M02*
