G04 #@! TF.FileFunction,Legend,Top*
%FSLAX46Y46*%
G04 Gerber Fmt 4.6, Leading zero omitted, Abs format (unit mm)*
G04 Created by KiCad (PCBNEW 4.0.7) date 03/19/18 18:58:34*
%MOMM*%
%LPD*%
G01*
G04 APERTURE LIST*
%ADD10C,0.100000*%
%ADD11C,0.150000*%
%ADD12C,0.300000*%
%ADD13C,0.400000*%
%ADD14C,0.125000*%
%ADD15C,0.175000*%
%ADD16C,0.200000*%
%ADD17C,0.120000*%
G04 APERTURE END LIST*
D10*
D11*
X177002200Y-166007200D02*
X177002200Y-198007200D01*
X285002200Y-198007200D01*
X285002200Y-166007200D01*
X177002200Y-166007200D01*
D10*
D11*
X10000000Y-10000000D02*
X10000000Y-200007200D01*
X287002200Y-200007200D01*
X287002200Y-10000000D01*
X10000000Y-10000000D01*
D10*
D11*
X12000000Y-12000000D02*
X12000000Y-198007200D01*
X285002200Y-198007200D01*
X285002200Y-12000000D01*
X12000000Y-12000000D01*
D10*
D11*
X60000000Y-12000000D02*
X60000000Y-10000000D01*
D10*
D11*
X110000000Y-12000000D02*
X110000000Y-10000000D01*
D10*
D11*
X160000000Y-12000000D02*
X160000000Y-10000000D01*
D10*
D11*
X210000000Y-12000000D02*
X210000000Y-10000000D01*
D10*
D11*
X260000000Y-12000000D02*
X260000000Y-10000000D01*
D10*
D11*
X35990476Y-11588095D02*
X35247619Y-11588095D01*
X35619048Y-11588095D02*
X35619048Y-10288095D01*
X35495238Y-10473810D01*
X35371429Y-10597619D01*
X35247619Y-10659524D01*
D10*
D11*
X85247619Y-10411905D02*
X85309524Y-10350000D01*
X85433333Y-10288095D01*
X85742857Y-10288095D01*
X85866667Y-10350000D01*
X85928571Y-10411905D01*
X85990476Y-10535714D01*
X85990476Y-10659524D01*
X85928571Y-10845238D01*
X85185714Y-11588095D01*
X85990476Y-11588095D01*
D10*
D11*
X135185714Y-10288095D02*
X135990476Y-10288095D01*
X135557143Y-10783333D01*
X135742857Y-10783333D01*
X135866667Y-10845238D01*
X135928571Y-10907143D01*
X135990476Y-11030952D01*
X135990476Y-11340476D01*
X135928571Y-11464286D01*
X135866667Y-11526190D01*
X135742857Y-11588095D01*
X135371429Y-11588095D01*
X135247619Y-11526190D01*
X135185714Y-11464286D01*
D10*
D11*
X185866667Y-10721429D02*
X185866667Y-11588095D01*
X185557143Y-10226190D02*
X185247619Y-11154762D01*
X186052381Y-11154762D01*
D10*
D11*
X235928571Y-10288095D02*
X235309524Y-10288095D01*
X235247619Y-10907143D01*
X235309524Y-10845238D01*
X235433333Y-10783333D01*
X235742857Y-10783333D01*
X235866667Y-10845238D01*
X235928571Y-10907143D01*
X235990476Y-11030952D01*
X235990476Y-11340476D01*
X235928571Y-11464286D01*
X235866667Y-11526190D01*
X235742857Y-11588095D01*
X235433333Y-11588095D01*
X235309524Y-11526190D01*
X235247619Y-11464286D01*
D10*
D11*
X285866667Y-10288095D02*
X285619048Y-10288095D01*
X285495238Y-10350000D01*
X285433333Y-10411905D01*
X285309524Y-10597619D01*
X285247619Y-10845238D01*
X285247619Y-11340476D01*
X285309524Y-11464286D01*
X285371429Y-11526190D01*
X285495238Y-11588095D01*
X285742857Y-11588095D01*
X285866667Y-11526190D01*
X285928571Y-11464286D01*
X285990476Y-11340476D01*
X285990476Y-11030952D01*
X285928571Y-10907143D01*
X285866667Y-10845238D01*
X285742857Y-10783333D01*
X285495238Y-10783333D01*
X285371429Y-10845238D01*
X285309524Y-10907143D01*
X285247619Y-11030952D01*
D10*
D11*
X60000000Y-198007200D02*
X60000000Y-200007200D01*
D10*
D11*
X110000000Y-198007200D02*
X110000000Y-200007200D01*
D10*
D11*
X160000000Y-198007200D02*
X160000000Y-200007200D01*
D10*
D11*
X210000000Y-198007200D02*
X210000000Y-200007200D01*
D10*
D11*
X260000000Y-198007200D02*
X260000000Y-200007200D01*
D10*
D11*
X35990476Y-199595295D02*
X35247619Y-199595295D01*
X35619048Y-199595295D02*
X35619048Y-198295295D01*
X35495238Y-198481010D01*
X35371429Y-198604819D01*
X35247619Y-198666724D01*
D10*
D11*
X85247619Y-198419105D02*
X85309524Y-198357200D01*
X85433333Y-198295295D01*
X85742857Y-198295295D01*
X85866667Y-198357200D01*
X85928571Y-198419105D01*
X85990476Y-198542914D01*
X85990476Y-198666724D01*
X85928571Y-198852438D01*
X85185714Y-199595295D01*
X85990476Y-199595295D01*
D10*
D11*
X135185714Y-198295295D02*
X135990476Y-198295295D01*
X135557143Y-198790533D01*
X135742857Y-198790533D01*
X135866667Y-198852438D01*
X135928571Y-198914343D01*
X135990476Y-199038152D01*
X135990476Y-199347676D01*
X135928571Y-199471486D01*
X135866667Y-199533390D01*
X135742857Y-199595295D01*
X135371429Y-199595295D01*
X135247619Y-199533390D01*
X135185714Y-199471486D01*
D10*
D11*
X185866667Y-198728629D02*
X185866667Y-199595295D01*
X185557143Y-198233390D02*
X185247619Y-199161962D01*
X186052381Y-199161962D01*
D10*
D11*
X235928571Y-198295295D02*
X235309524Y-198295295D01*
X235247619Y-198914343D01*
X235309524Y-198852438D01*
X235433333Y-198790533D01*
X235742857Y-198790533D01*
X235866667Y-198852438D01*
X235928571Y-198914343D01*
X235990476Y-199038152D01*
X235990476Y-199347676D01*
X235928571Y-199471486D01*
X235866667Y-199533390D01*
X235742857Y-199595295D01*
X235433333Y-199595295D01*
X235309524Y-199533390D01*
X235247619Y-199471486D01*
D10*
D11*
X285866667Y-198295295D02*
X285619048Y-198295295D01*
X285495238Y-198357200D01*
X285433333Y-198419105D01*
X285309524Y-198604819D01*
X285247619Y-198852438D01*
X285247619Y-199347676D01*
X285309524Y-199471486D01*
X285371429Y-199533390D01*
X285495238Y-199595295D01*
X285742857Y-199595295D01*
X285866667Y-199533390D01*
X285928571Y-199471486D01*
X285990476Y-199347676D01*
X285990476Y-199038152D01*
X285928571Y-198914343D01*
X285866667Y-198852438D01*
X285742857Y-198790533D01*
X285495238Y-198790533D01*
X285371429Y-198852438D01*
X285309524Y-198914343D01*
X285247619Y-199038152D01*
D10*
D11*
X10000000Y-60000000D02*
X12000000Y-60000000D01*
D10*
D11*
X10000000Y-110000000D02*
X12000000Y-110000000D01*
D10*
D11*
X10000000Y-160000000D02*
X12000000Y-160000000D01*
D10*
D11*
X10690476Y-35216667D02*
X11309524Y-35216667D01*
X10566667Y-35588095D02*
X11000000Y-34288095D01*
X11433333Y-35588095D01*
D10*
D11*
X11092857Y-84907143D02*
X11278571Y-84969048D01*
X11340476Y-85030952D01*
X11402381Y-85154762D01*
X11402381Y-85340476D01*
X11340476Y-85464286D01*
X11278571Y-85526190D01*
X11154762Y-85588095D01*
X10659524Y-85588095D01*
X10659524Y-84288095D01*
X11092857Y-84288095D01*
X11216667Y-84350000D01*
X11278571Y-84411905D01*
X11340476Y-84535714D01*
X11340476Y-84659524D01*
X11278571Y-84783333D01*
X11216667Y-84845238D01*
X11092857Y-84907143D01*
X10659524Y-84907143D01*
D10*
D11*
X11402381Y-135464286D02*
X11340476Y-135526190D01*
X11154762Y-135588095D01*
X11030952Y-135588095D01*
X10845238Y-135526190D01*
X10721429Y-135402381D01*
X10659524Y-135278571D01*
X10597619Y-135030952D01*
X10597619Y-134845238D01*
X10659524Y-134597619D01*
X10721429Y-134473810D01*
X10845238Y-134350000D01*
X11030952Y-134288095D01*
X11154762Y-134288095D01*
X11340476Y-134350000D01*
X11402381Y-134411905D01*
D10*
D11*
X10659524Y-185588095D02*
X10659524Y-184288095D01*
X10969048Y-184288095D01*
X11154762Y-184350000D01*
X11278571Y-184473810D01*
X11340476Y-184597619D01*
X11402381Y-184845238D01*
X11402381Y-185030952D01*
X11340476Y-185278571D01*
X11278571Y-185402381D01*
X11154762Y-185526190D01*
X10969048Y-185588095D01*
X10659524Y-185588095D01*
D10*
D11*
X287002200Y-60000000D02*
X285002200Y-60000000D01*
D10*
D11*
X287002200Y-110000000D02*
X285002200Y-110000000D01*
D10*
D11*
X287002200Y-160000000D02*
X285002200Y-160000000D01*
D10*
D11*
X285692676Y-35216667D02*
X286311724Y-35216667D01*
X285568867Y-35588095D02*
X286002200Y-34288095D01*
X286435533Y-35588095D01*
D10*
D11*
X286095057Y-84907143D02*
X286280771Y-84969048D01*
X286342676Y-85030952D01*
X286404581Y-85154762D01*
X286404581Y-85340476D01*
X286342676Y-85464286D01*
X286280771Y-85526190D01*
X286156962Y-85588095D01*
X285661724Y-85588095D01*
X285661724Y-84288095D01*
X286095057Y-84288095D01*
X286218867Y-84350000D01*
X286280771Y-84411905D01*
X286342676Y-84535714D01*
X286342676Y-84659524D01*
X286280771Y-84783333D01*
X286218867Y-84845238D01*
X286095057Y-84907143D01*
X285661724Y-84907143D01*
D10*
D11*
X286404581Y-135464286D02*
X286342676Y-135526190D01*
X286156962Y-135588095D01*
X286033152Y-135588095D01*
X285847438Y-135526190D01*
X285723629Y-135402381D01*
X285661724Y-135278571D01*
X285599819Y-135030952D01*
X285599819Y-134845238D01*
X285661724Y-134597619D01*
X285723629Y-134473810D01*
X285847438Y-134350000D01*
X286033152Y-134288095D01*
X286156962Y-134288095D01*
X286342676Y-134350000D01*
X286404581Y-134411905D01*
D10*
D11*
X285661724Y-185588095D02*
X285661724Y-184288095D01*
X285971248Y-184288095D01*
X286156962Y-184350000D01*
X286280771Y-184473810D01*
X286342676Y-184597619D01*
X286404581Y-184845238D01*
X286404581Y-185030952D01*
X286342676Y-185278571D01*
X286280771Y-185402381D01*
X286156962Y-185526190D01*
X285971248Y-185588095D01*
X285661724Y-185588095D01*
D10*
D11*
X200359343Y-193785771D02*
X200359343Y-192285771D01*
X200716486Y-192285771D01*
X200930771Y-192357200D01*
X201073629Y-192500057D01*
X201145057Y-192642914D01*
X201216486Y-192928629D01*
X201216486Y-193142914D01*
X201145057Y-193428629D01*
X201073629Y-193571486D01*
X200930771Y-193714343D01*
X200716486Y-193785771D01*
X200359343Y-193785771D01*
X202502200Y-193785771D02*
X202502200Y-193000057D01*
X202430771Y-192857200D01*
X202287914Y-192785771D01*
X202002200Y-192785771D01*
X201859343Y-192857200D01*
X202502200Y-193714343D02*
X202359343Y-193785771D01*
X202002200Y-193785771D01*
X201859343Y-193714343D01*
X201787914Y-193571486D01*
X201787914Y-193428629D01*
X201859343Y-193285771D01*
X202002200Y-193214343D01*
X202359343Y-193214343D01*
X202502200Y-193142914D01*
X203002200Y-192785771D02*
X203573629Y-192785771D01*
X203216486Y-192285771D02*
X203216486Y-193571486D01*
X203287914Y-193714343D01*
X203430772Y-193785771D01*
X203573629Y-193785771D01*
X204645057Y-193714343D02*
X204502200Y-193785771D01*
X204216486Y-193785771D01*
X204073629Y-193714343D01*
X204002200Y-193571486D01*
X204002200Y-193000057D01*
X204073629Y-192857200D01*
X204216486Y-192785771D01*
X204502200Y-192785771D01*
X204645057Y-192857200D01*
X204716486Y-193000057D01*
X204716486Y-193142914D01*
X204002200Y-193285771D01*
X205359343Y-193642914D02*
X205430771Y-193714343D01*
X205359343Y-193785771D01*
X205287914Y-193714343D01*
X205359343Y-193642914D01*
X205359343Y-193785771D01*
X205359343Y-192857200D02*
X205430771Y-192928629D01*
X205359343Y-193000057D01*
X205287914Y-192928629D01*
X205359343Y-192857200D01*
X205359343Y-193000057D01*
X207145057Y-192428629D02*
X207216486Y-192357200D01*
X207359343Y-192285771D01*
X207716486Y-192285771D01*
X207859343Y-192357200D01*
X207930772Y-192428629D01*
X208002200Y-192571486D01*
X208002200Y-192714343D01*
X207930772Y-192928629D01*
X207073629Y-193785771D01*
X208002200Y-193785771D01*
X208930771Y-192285771D02*
X209073628Y-192285771D01*
X209216485Y-192357200D01*
X209287914Y-192428629D01*
X209359343Y-192571486D01*
X209430771Y-192857200D01*
X209430771Y-193214343D01*
X209359343Y-193500057D01*
X209287914Y-193642914D01*
X209216485Y-193714343D01*
X209073628Y-193785771D01*
X208930771Y-193785771D01*
X208787914Y-193714343D01*
X208716485Y-193642914D01*
X208645057Y-193500057D01*
X208573628Y-193214343D01*
X208573628Y-192857200D01*
X208645057Y-192571486D01*
X208716485Y-192428629D01*
X208787914Y-192357200D01*
X208930771Y-192285771D01*
X210859342Y-193785771D02*
X210002199Y-193785771D01*
X210430771Y-193785771D02*
X210430771Y-192285771D01*
X210287914Y-192500057D01*
X210145056Y-192642914D01*
X210002199Y-192714343D01*
X211716485Y-192928629D02*
X211573627Y-192857200D01*
X211502199Y-192785771D01*
X211430770Y-192642914D01*
X211430770Y-192571486D01*
X211502199Y-192428629D01*
X211573627Y-192357200D01*
X211716485Y-192285771D01*
X212002199Y-192285771D01*
X212145056Y-192357200D01*
X212216485Y-192428629D01*
X212287913Y-192571486D01*
X212287913Y-192642914D01*
X212216485Y-192785771D01*
X212145056Y-192857200D01*
X212002199Y-192928629D01*
X211716485Y-192928629D01*
X211573627Y-193000057D01*
X211502199Y-193071486D01*
X211430770Y-193214343D01*
X211430770Y-193500057D01*
X211502199Y-193642914D01*
X211573627Y-193714343D01*
X211716485Y-193785771D01*
X212002199Y-193785771D01*
X212145056Y-193714343D01*
X212216485Y-193642914D01*
X212287913Y-193500057D01*
X212287913Y-193214343D01*
X212216485Y-193071486D01*
X212145056Y-193000057D01*
X212002199Y-192928629D01*
X212930770Y-193214343D02*
X214073627Y-193214343D01*
X215073627Y-192285771D02*
X215216484Y-192285771D01*
X215359341Y-192357200D01*
X215430770Y-192428629D01*
X215502199Y-192571486D01*
X215573627Y-192857200D01*
X215573627Y-193214343D01*
X215502199Y-193500057D01*
X215430770Y-193642914D01*
X215359341Y-193714343D01*
X215216484Y-193785771D01*
X215073627Y-193785771D01*
X214930770Y-193714343D01*
X214859341Y-193642914D01*
X214787913Y-193500057D01*
X214716484Y-193214343D01*
X214716484Y-192857200D01*
X214787913Y-192571486D01*
X214859341Y-192428629D01*
X214930770Y-192357200D01*
X215073627Y-192285771D01*
X216073627Y-192285771D02*
X217002198Y-192285771D01*
X216502198Y-192857200D01*
X216716484Y-192857200D01*
X216859341Y-192928629D01*
X216930770Y-193000057D01*
X217002198Y-193142914D01*
X217002198Y-193500057D01*
X216930770Y-193642914D01*
X216859341Y-193714343D01*
X216716484Y-193785771D01*
X216287912Y-193785771D01*
X216145055Y-193714343D01*
X216073627Y-193642914D01*
X217645055Y-193214343D02*
X218787912Y-193214343D01*
X220287912Y-193785771D02*
X219430769Y-193785771D01*
X219859341Y-193785771D02*
X219859341Y-192285771D01*
X219716484Y-192500057D01*
X219573626Y-192642914D01*
X219430769Y-192714343D01*
X221145055Y-192928629D02*
X221002197Y-192857200D01*
X220930769Y-192785771D01*
X220859340Y-192642914D01*
X220859340Y-192571486D01*
X220930769Y-192428629D01*
X221002197Y-192357200D01*
X221145055Y-192285771D01*
X221430769Y-192285771D01*
X221573626Y-192357200D01*
X221645055Y-192428629D01*
X221716483Y-192571486D01*
X221716483Y-192642914D01*
X221645055Y-192785771D01*
X221573626Y-192857200D01*
X221430769Y-192928629D01*
X221145055Y-192928629D01*
X221002197Y-193000057D01*
X220930769Y-193071486D01*
X220859340Y-193214343D01*
X220859340Y-193500057D01*
X220930769Y-193642914D01*
X221002197Y-193714343D01*
X221145055Y-193785771D01*
X221430769Y-193785771D01*
X221573626Y-193714343D01*
X221645055Y-193642914D01*
X221716483Y-193500057D01*
X221716483Y-193214343D01*
X221645055Y-193071486D01*
X221573626Y-193000057D01*
X221430769Y-192928629D01*
D10*
D11*
X177002200Y-194507200D02*
X285002200Y-194507200D01*
D10*
D11*
X178359343Y-196585771D02*
X178359343Y-195085771D01*
X179216486Y-196585771D02*
X178573629Y-195728629D01*
X179216486Y-195085771D02*
X178359343Y-195942914D01*
X179859343Y-196585771D02*
X179859343Y-195585771D01*
X179859343Y-195085771D02*
X179787914Y-195157200D01*
X179859343Y-195228629D01*
X179930771Y-195157200D01*
X179859343Y-195085771D01*
X179859343Y-195228629D01*
X181430772Y-196442914D02*
X181359343Y-196514343D01*
X181145057Y-196585771D01*
X181002200Y-196585771D01*
X180787915Y-196514343D01*
X180645057Y-196371486D01*
X180573629Y-196228629D01*
X180502200Y-195942914D01*
X180502200Y-195728629D01*
X180573629Y-195442914D01*
X180645057Y-195300057D01*
X180787915Y-195157200D01*
X181002200Y-195085771D01*
X181145057Y-195085771D01*
X181359343Y-195157200D01*
X181430772Y-195228629D01*
X182716486Y-196585771D02*
X182716486Y-195800057D01*
X182645057Y-195657200D01*
X182502200Y-195585771D01*
X182216486Y-195585771D01*
X182073629Y-195657200D01*
X182716486Y-196514343D02*
X182573629Y-196585771D01*
X182216486Y-196585771D01*
X182073629Y-196514343D01*
X182002200Y-196371486D01*
X182002200Y-196228629D01*
X182073629Y-196085771D01*
X182216486Y-196014343D01*
X182573629Y-196014343D01*
X182716486Y-195942914D01*
X184073629Y-196585771D02*
X184073629Y-195085771D01*
X184073629Y-196514343D02*
X183930772Y-196585771D01*
X183645058Y-196585771D01*
X183502200Y-196514343D01*
X183430772Y-196442914D01*
X183359343Y-196300057D01*
X183359343Y-195871486D01*
X183430772Y-195728629D01*
X183502200Y-195657200D01*
X183645058Y-195585771D01*
X183930772Y-195585771D01*
X184073629Y-195657200D01*
X185930772Y-195800057D02*
X186430772Y-195800057D01*
X186645058Y-196585771D02*
X185930772Y-196585771D01*
X185930772Y-195085771D01*
X186645058Y-195085771D01*
X187287915Y-196442914D02*
X187359343Y-196514343D01*
X187287915Y-196585771D01*
X187216486Y-196514343D01*
X187287915Y-196442914D01*
X187287915Y-196585771D01*
X188002201Y-196585771D02*
X188002201Y-195085771D01*
X188359344Y-195085771D01*
X188573629Y-195157200D01*
X188716487Y-195300057D01*
X188787915Y-195442914D01*
X188859344Y-195728629D01*
X188859344Y-195942914D01*
X188787915Y-196228629D01*
X188716487Y-196371486D01*
X188573629Y-196514343D01*
X188359344Y-196585771D01*
X188002201Y-196585771D01*
X189502201Y-196442914D02*
X189573629Y-196514343D01*
X189502201Y-196585771D01*
X189430772Y-196514343D01*
X189502201Y-196442914D01*
X189502201Y-196585771D01*
X190145058Y-196157200D02*
X190859344Y-196157200D01*
X190002201Y-196585771D02*
X190502201Y-195085771D01*
X191002201Y-196585771D01*
X191502201Y-196442914D02*
X191573629Y-196514343D01*
X191502201Y-196585771D01*
X191430772Y-196514343D01*
X191502201Y-196442914D01*
X191502201Y-196585771D01*
X194502201Y-196585771D02*
X194502201Y-195085771D01*
X194645058Y-196014343D02*
X195073629Y-196585771D01*
X195073629Y-195585771D02*
X194502201Y-196157200D01*
X195716487Y-196585771D02*
X195716487Y-195585771D01*
X195716487Y-195085771D02*
X195645058Y-195157200D01*
X195716487Y-195228629D01*
X195787915Y-195157200D01*
X195716487Y-195085771D01*
X195716487Y-195228629D01*
X197073630Y-196514343D02*
X196930773Y-196585771D01*
X196645059Y-196585771D01*
X196502201Y-196514343D01*
X196430773Y-196442914D01*
X196359344Y-196300057D01*
X196359344Y-195871486D01*
X196430773Y-195728629D01*
X196502201Y-195657200D01*
X196645059Y-195585771D01*
X196930773Y-195585771D01*
X197073630Y-195657200D01*
X198359344Y-196585771D02*
X198359344Y-195800057D01*
X198287915Y-195657200D01*
X198145058Y-195585771D01*
X197859344Y-195585771D01*
X197716487Y-195657200D01*
X198359344Y-196514343D02*
X198216487Y-196585771D01*
X197859344Y-196585771D01*
X197716487Y-196514343D01*
X197645058Y-196371486D01*
X197645058Y-196228629D01*
X197716487Y-196085771D01*
X197859344Y-196014343D01*
X198216487Y-196014343D01*
X198359344Y-195942914D01*
X199716487Y-196585771D02*
X199716487Y-195085771D01*
X199716487Y-196514343D02*
X199573630Y-196585771D01*
X199287916Y-196585771D01*
X199145058Y-196514343D01*
X199073630Y-196442914D01*
X199002201Y-196300057D01*
X199002201Y-195871486D01*
X199073630Y-195728629D01*
X199145058Y-195657200D01*
X199287916Y-195585771D01*
X199573630Y-195585771D01*
X199716487Y-195657200D01*
X202216487Y-195585771D02*
X202216487Y-196585771D01*
X201859344Y-195014343D02*
X201502201Y-196085771D01*
X202430773Y-196085771D01*
X203002201Y-196442914D02*
X203073629Y-196514343D01*
X203002201Y-196585771D01*
X202930772Y-196514343D01*
X203002201Y-196442914D01*
X203002201Y-196585771D01*
X204002201Y-195085771D02*
X204145058Y-195085771D01*
X204287915Y-195157200D01*
X204359344Y-195228629D01*
X204430773Y-195371486D01*
X204502201Y-195657200D01*
X204502201Y-196014343D01*
X204430773Y-196300057D01*
X204359344Y-196442914D01*
X204287915Y-196514343D01*
X204145058Y-196585771D01*
X204002201Y-196585771D01*
X203859344Y-196514343D01*
X203787915Y-196442914D01*
X203716487Y-196300057D01*
X203645058Y-196014343D01*
X203645058Y-195657200D01*
X203716487Y-195371486D01*
X203787915Y-195228629D01*
X203859344Y-195157200D01*
X204002201Y-195085771D01*
X205145058Y-196442914D02*
X205216486Y-196514343D01*
X205145058Y-196585771D01*
X205073629Y-196514343D01*
X205145058Y-196442914D01*
X205145058Y-196585771D01*
X205716487Y-195085771D02*
X206716487Y-195085771D01*
X206073630Y-196585771D01*
D10*
D11*
X177002200Y-191507200D02*
X285002200Y-191507200D01*
D10*
D12*
X264216486Y-193785771D02*
X263716486Y-193071486D01*
X263359343Y-193785771D02*
X263359343Y-192285771D01*
X263930771Y-192285771D01*
X264073629Y-192357200D01*
X264145057Y-192428629D01*
X264216486Y-192571486D01*
X264216486Y-192785771D01*
X264145057Y-192928629D01*
X264073629Y-193000057D01*
X263930771Y-193071486D01*
X263359343Y-193071486D01*
X265430771Y-193714343D02*
X265287914Y-193785771D01*
X265002200Y-193785771D01*
X264859343Y-193714343D01*
X264787914Y-193571486D01*
X264787914Y-193000057D01*
X264859343Y-192857200D01*
X265002200Y-192785771D01*
X265287914Y-192785771D01*
X265430771Y-192857200D01*
X265502200Y-193000057D01*
X265502200Y-193142914D01*
X264787914Y-193285771D01*
X266002200Y-192785771D02*
X266359343Y-193785771D01*
X266716485Y-192785771D01*
X267287914Y-193642914D02*
X267359342Y-193714343D01*
X267287914Y-193785771D01*
X267216485Y-193714343D01*
X267287914Y-193642914D01*
X267287914Y-193785771D01*
X267287914Y-192857200D02*
X267359342Y-192928629D01*
X267287914Y-193000057D01*
X267216485Y-192928629D01*
X267287914Y-192857200D01*
X267287914Y-193000057D01*
X268930771Y-192285771D02*
X269430771Y-193785771D01*
X269930771Y-192285771D01*
X271216485Y-193785771D02*
X270359342Y-193785771D01*
X270787914Y-193785771D02*
X270787914Y-192285771D01*
X270645057Y-192500057D01*
X270502199Y-192642914D01*
X270359342Y-192714343D01*
X271859342Y-193642914D02*
X271930770Y-193714343D01*
X271859342Y-193785771D01*
X271787913Y-193714343D01*
X271859342Y-193642914D01*
X271859342Y-193785771D01*
X272859342Y-192285771D02*
X273002199Y-192285771D01*
X273145056Y-192357200D01*
X273216485Y-192428629D01*
X273287914Y-192571486D01*
X273359342Y-192857200D01*
X273359342Y-193214343D01*
X273287914Y-193500057D01*
X273216485Y-193642914D01*
X273145056Y-193714343D01*
X273002199Y-193785771D01*
X272859342Y-193785771D01*
X272716485Y-193714343D01*
X272645056Y-193642914D01*
X272573628Y-193500057D01*
X272502199Y-193214343D01*
X272502199Y-192857200D01*
X272573628Y-192571486D01*
X272645056Y-192428629D01*
X272716485Y-192357200D01*
X272859342Y-192285771D01*
D10*
D11*
X178287914Y-193714343D02*
X178502200Y-193785771D01*
X178859343Y-193785771D01*
X179002200Y-193714343D01*
X179073629Y-193642914D01*
X179145057Y-193500057D01*
X179145057Y-193357200D01*
X179073629Y-193214343D01*
X179002200Y-193142914D01*
X178859343Y-193071486D01*
X178573629Y-193000057D01*
X178430771Y-192928629D01*
X178359343Y-192857200D01*
X178287914Y-192714343D01*
X178287914Y-192571486D01*
X178359343Y-192428629D01*
X178430771Y-192357200D01*
X178573629Y-192285771D01*
X178930771Y-192285771D01*
X179145057Y-192357200D01*
X179787914Y-193785771D02*
X179787914Y-192785771D01*
X179787914Y-192285771D02*
X179716485Y-192357200D01*
X179787914Y-192428629D01*
X179859342Y-192357200D01*
X179787914Y-192285771D01*
X179787914Y-192428629D01*
X180359343Y-192785771D02*
X181145057Y-192785771D01*
X180359343Y-193785771D01*
X181145057Y-193785771D01*
X182287914Y-193714343D02*
X182145057Y-193785771D01*
X181859343Y-193785771D01*
X181716486Y-193714343D01*
X181645057Y-193571486D01*
X181645057Y-193000057D01*
X181716486Y-192857200D01*
X181859343Y-192785771D01*
X182145057Y-192785771D01*
X182287914Y-192857200D01*
X182359343Y-193000057D01*
X182359343Y-193142914D01*
X181645057Y-193285771D01*
X183002200Y-193642914D02*
X183073628Y-193714343D01*
X183002200Y-193785771D01*
X182930771Y-193714343D01*
X183002200Y-193642914D01*
X183002200Y-193785771D01*
X183002200Y-192857200D02*
X183073628Y-192928629D01*
X183002200Y-193000057D01*
X182930771Y-192928629D01*
X183002200Y-192857200D01*
X183002200Y-193000057D01*
X184787914Y-193357200D02*
X185502200Y-193357200D01*
X184645057Y-193785771D02*
X185145057Y-192285771D01*
X185645057Y-193785771D01*
X186787914Y-192785771D02*
X186787914Y-193785771D01*
X186430771Y-192214343D02*
X186073628Y-193285771D01*
X187002200Y-193285771D01*
D10*
D11*
X263359343Y-196585771D02*
X263359343Y-195085771D01*
X264716486Y-196585771D02*
X264716486Y-195085771D01*
X264716486Y-196514343D02*
X264573629Y-196585771D01*
X264287915Y-196585771D01*
X264145057Y-196514343D01*
X264073629Y-196442914D01*
X264002200Y-196300057D01*
X264002200Y-195871486D01*
X264073629Y-195728629D01*
X264145057Y-195657200D01*
X264287915Y-195585771D01*
X264573629Y-195585771D01*
X264716486Y-195657200D01*
X265430772Y-196442914D02*
X265502200Y-196514343D01*
X265430772Y-196585771D01*
X265359343Y-196514343D01*
X265430772Y-196442914D01*
X265430772Y-196585771D01*
X265430772Y-195657200D02*
X265502200Y-195728629D01*
X265430772Y-195800057D01*
X265359343Y-195728629D01*
X265430772Y-195657200D01*
X265430772Y-195800057D01*
X268073629Y-196585771D02*
X267216486Y-196585771D01*
X267645058Y-196585771D02*
X267645058Y-195085771D01*
X267502201Y-195300057D01*
X267359343Y-195442914D01*
X267216486Y-195514343D01*
X269787914Y-195014343D02*
X268502200Y-196942914D01*
X271073629Y-196585771D02*
X270216486Y-196585771D01*
X270645058Y-196585771D02*
X270645058Y-195085771D01*
X270502201Y-195300057D01*
X270359343Y-195442914D01*
X270216486Y-195514343D01*
D10*
D11*
X177002200Y-187507200D02*
X285002200Y-187507200D01*
D10*
D13*
X178454581Y-188211962D02*
X179597438Y-188211962D01*
X178776010Y-190211962D02*
X179026010Y-188211962D01*
X180014105Y-190211962D02*
X180180771Y-188878629D01*
X180264105Y-188211962D02*
X180156962Y-188307200D01*
X180240295Y-188402438D01*
X180347439Y-188307200D01*
X180264105Y-188211962D01*
X180240295Y-188402438D01*
X180847438Y-188878629D02*
X181609343Y-188878629D01*
X181216486Y-188211962D02*
X181002200Y-189926248D01*
X181073630Y-190116724D01*
X181252201Y-190211962D01*
X181442677Y-190211962D01*
X182395058Y-190211962D02*
X182216487Y-190116724D01*
X182145057Y-189926248D01*
X182359343Y-188211962D01*
X183930772Y-190116724D02*
X183728391Y-190211962D01*
X183347439Y-190211962D01*
X183168867Y-190116724D01*
X183097438Y-189926248D01*
X183192676Y-189164343D01*
X183311724Y-188973867D01*
X183514105Y-188878629D01*
X183895057Y-188878629D01*
X184073629Y-188973867D01*
X184145057Y-189164343D01*
X184121248Y-189354819D01*
X183145057Y-189545295D01*
X184895057Y-190021486D02*
X184978392Y-190116724D01*
X184871248Y-190211962D01*
X184787915Y-190116724D01*
X184895057Y-190021486D01*
X184871248Y-190211962D01*
X185026010Y-188973867D02*
X185109344Y-189069105D01*
X185002200Y-189164343D01*
X184918867Y-189069105D01*
X185026010Y-188973867D01*
X185002200Y-189164343D01*
X187347439Y-190211962D02*
X187597439Y-188211962D01*
X188490297Y-190211962D01*
X188740297Y-188211962D01*
X190585535Y-190211962D02*
X190037915Y-189259581D01*
X189442677Y-190211962D02*
X189692677Y-188211962D01*
X190454582Y-188211962D01*
X190633153Y-188307200D01*
X190716487Y-188402438D01*
X190787916Y-188592914D01*
X190752201Y-188878629D01*
X190633154Y-189069105D01*
X190526010Y-189164343D01*
X190323629Y-189259581D01*
X189561724Y-189259581D01*
X192240296Y-189164343D02*
X191573629Y-189164343D01*
X191442677Y-190211962D02*
X191692677Y-188211962D01*
X192645058Y-188211962D01*
X193287915Y-188402438D02*
X193395058Y-188307200D01*
X193597440Y-188211962D01*
X194073630Y-188211962D01*
X194252201Y-188307200D01*
X194335534Y-188402438D01*
X194406964Y-188592914D01*
X194383154Y-188783390D01*
X194252201Y-189069105D01*
X192966487Y-190211962D01*
X194204583Y-190211962D01*
X196085534Y-188878629D02*
X195918868Y-190211962D01*
X195704583Y-188116724D02*
X195049820Y-189545295D01*
X196287916Y-189545295D01*
X198490297Y-190211962D02*
X198740297Y-188211962D01*
X198645059Y-188973867D02*
X198847440Y-188878629D01*
X199228392Y-188878629D01*
X199406964Y-188973867D01*
X199490297Y-189069105D01*
X199561725Y-189259581D01*
X199490297Y-189831010D01*
X199371249Y-190021486D01*
X199264107Y-190116724D01*
X199061726Y-190211962D01*
X198680774Y-190211962D01*
X198502202Y-190116724D01*
X200299821Y-190211962D02*
X200466487Y-188878629D01*
X200418868Y-189259581D02*
X200537917Y-189069105D01*
X200645060Y-188973867D01*
X200847440Y-188878629D01*
X201037916Y-188878629D01*
X202311726Y-190116724D02*
X202109345Y-190211962D01*
X201728393Y-190211962D01*
X201549821Y-190116724D01*
X201478392Y-189926248D01*
X201573630Y-189164343D01*
X201692678Y-188973867D01*
X201895059Y-188878629D01*
X202276011Y-188878629D01*
X202454583Y-188973867D01*
X202526011Y-189164343D01*
X202502202Y-189354819D01*
X201526011Y-189545295D01*
X204109345Y-190211962D02*
X204240297Y-189164343D01*
X204168869Y-188973867D01*
X203990297Y-188878629D01*
X203609345Y-188878629D01*
X203406964Y-188973867D01*
X204121250Y-190116724D02*
X203918869Y-190211962D01*
X203442679Y-190211962D01*
X203264107Y-190116724D01*
X203192678Y-189926248D01*
X203216488Y-189735771D01*
X203335535Y-189545295D01*
X203537917Y-189450057D01*
X204014107Y-189450057D01*
X204216488Y-189354819D01*
X205061726Y-190211962D02*
X205311726Y-188211962D01*
X205347441Y-189450057D02*
X205823631Y-190211962D01*
X205990297Y-188878629D02*
X205133154Y-189640533D01*
X206966489Y-190211962D02*
X206787918Y-190116724D01*
X206704583Y-190021486D01*
X206633155Y-189831010D01*
X206704583Y-189259581D01*
X206823631Y-189069105D01*
X206930775Y-188973867D01*
X207133155Y-188878629D01*
X207418869Y-188878629D01*
X207597441Y-188973867D01*
X207680774Y-189069105D01*
X207752202Y-189259581D01*
X207680774Y-189831010D01*
X207561726Y-190021486D01*
X207454584Y-190116724D01*
X207252203Y-190211962D01*
X206966489Y-190211962D01*
X209514107Y-188878629D02*
X209347441Y-190211962D01*
X208656964Y-188878629D02*
X208526012Y-189926248D01*
X208597442Y-190116724D01*
X208776013Y-190211962D01*
X209061727Y-190211962D01*
X209264108Y-190116724D01*
X209371250Y-190021486D01*
X210180774Y-188878629D02*
X210942679Y-188878629D01*
X210549822Y-188211962D02*
X210335536Y-189926248D01*
X210406966Y-190116724D01*
X210585537Y-190211962D01*
X210776013Y-190211962D01*
X212847441Y-188878629D02*
X213609346Y-188878629D01*
X212966489Y-190211962D02*
X213180775Y-188497676D01*
X213299823Y-188307200D01*
X213502204Y-188211962D01*
X213692680Y-188211962D01*
X214395061Y-190211962D02*
X214216490Y-190116724D01*
X214133155Y-190021486D01*
X214061727Y-189831010D01*
X214133155Y-189259581D01*
X214252203Y-189069105D01*
X214359347Y-188973867D01*
X214561727Y-188878629D01*
X214847441Y-188878629D01*
X215026013Y-188973867D01*
X215109346Y-189069105D01*
X215180774Y-189259581D01*
X215109346Y-189831010D01*
X214990298Y-190021486D01*
X214883156Y-190116724D01*
X214680775Y-190211962D01*
X214395061Y-190211962D01*
X215918870Y-190211962D02*
X216085536Y-188878629D01*
X216037917Y-189259581D02*
X216156966Y-189069105D01*
X216264109Y-188973867D01*
X216466489Y-188878629D01*
X216656965Y-188878629D01*
X218680775Y-190211962D02*
X218930775Y-188211962D01*
X218835537Y-188973867D02*
X219037918Y-188878629D01*
X219418870Y-188878629D01*
X219597442Y-188973867D01*
X219680775Y-189069105D01*
X219752203Y-189259581D01*
X219680775Y-189831010D01*
X219561727Y-190021486D01*
X219454585Y-190116724D01*
X219252204Y-190211962D01*
X218871252Y-190211962D01*
X218692680Y-190116724D01*
X220490299Y-190211962D02*
X220656965Y-188878629D01*
X220609346Y-189259581D02*
X220728395Y-189069105D01*
X220835538Y-188973867D01*
X221037918Y-188878629D01*
X221228394Y-188878629D01*
X222502204Y-190116724D02*
X222299823Y-190211962D01*
X221918871Y-190211962D01*
X221740299Y-190116724D01*
X221668870Y-189926248D01*
X221764108Y-189164343D01*
X221883156Y-188973867D01*
X222085537Y-188878629D01*
X222466489Y-188878629D01*
X222645061Y-188973867D01*
X222716489Y-189164343D01*
X222692680Y-189354819D01*
X221716489Y-189545295D01*
X224299823Y-190211962D02*
X224430775Y-189164343D01*
X224359347Y-188973867D01*
X224180775Y-188878629D01*
X223799823Y-188878629D01*
X223597442Y-188973867D01*
X224311728Y-190116724D02*
X224109347Y-190211962D01*
X223633157Y-190211962D01*
X223454585Y-190116724D01*
X223383156Y-189926248D01*
X223406966Y-189735771D01*
X223526013Y-189545295D01*
X223728395Y-189450057D01*
X224204585Y-189450057D01*
X224406966Y-189354819D01*
X226109347Y-190211962D02*
X226359347Y-188211962D01*
X226121252Y-190116724D02*
X225918871Y-190211962D01*
X225537919Y-190211962D01*
X225359348Y-190116724D01*
X225276013Y-190021486D01*
X225204585Y-189831010D01*
X225276013Y-189259581D01*
X225395061Y-189069105D01*
X225502205Y-188973867D01*
X225704585Y-188878629D01*
X226085537Y-188878629D01*
X226264109Y-188973867D01*
X227061728Y-190211962D02*
X227311728Y-188211962D01*
X227216490Y-188973867D02*
X227418871Y-188878629D01*
X227799823Y-188878629D01*
X227978395Y-188973867D01*
X228061728Y-189069105D01*
X228133156Y-189259581D01*
X228061728Y-189831010D01*
X227942680Y-190021486D01*
X227835538Y-190116724D01*
X227633157Y-190211962D01*
X227252205Y-190211962D01*
X227073633Y-190116724D01*
X229156967Y-190211962D02*
X228978396Y-190116724D01*
X228895061Y-190021486D01*
X228823633Y-189831010D01*
X228895061Y-189259581D01*
X229014109Y-189069105D01*
X229121253Y-188973867D01*
X229323633Y-188878629D01*
X229609347Y-188878629D01*
X229787919Y-188973867D01*
X229871252Y-189069105D01*
X229942680Y-189259581D01*
X229871252Y-189831010D01*
X229752204Y-190021486D01*
X229645062Y-190116724D01*
X229442681Y-190211962D01*
X229156967Y-190211962D01*
X231537919Y-190211962D02*
X231668871Y-189164343D01*
X231597443Y-188973867D01*
X231418871Y-188878629D01*
X231037919Y-188878629D01*
X230835538Y-188973867D01*
X231549824Y-190116724D02*
X231347443Y-190211962D01*
X230871253Y-190211962D01*
X230692681Y-190116724D01*
X230621252Y-189926248D01*
X230645062Y-189735771D01*
X230764109Y-189545295D01*
X230966491Y-189450057D01*
X231442681Y-189450057D01*
X231645062Y-189354819D01*
X232490300Y-190211962D02*
X232656966Y-188878629D01*
X232609347Y-189259581D02*
X232728396Y-189069105D01*
X232835539Y-188973867D01*
X233037919Y-188878629D01*
X233228395Y-188878629D01*
X234585538Y-190211962D02*
X234835538Y-188211962D01*
X234597443Y-190116724D02*
X234395062Y-190211962D01*
X234014110Y-190211962D01*
X233835539Y-190116724D01*
X233752204Y-190021486D01*
X233680776Y-189831010D01*
X233752204Y-189259581D01*
X233871252Y-189069105D01*
X233978396Y-188973867D01*
X234180776Y-188878629D01*
X234561728Y-188878629D01*
X234740300Y-188973867D01*
X237061729Y-190211962D02*
X237311729Y-188211962D01*
X238073634Y-188211962D01*
X238252205Y-188307200D01*
X238335539Y-188402438D01*
X238406968Y-188592914D01*
X238371253Y-188878629D01*
X238252206Y-189069105D01*
X238145062Y-189164343D01*
X237942681Y-189259581D01*
X237180776Y-189259581D01*
X240228396Y-190021486D02*
X240121254Y-190116724D01*
X239823634Y-190211962D01*
X239633158Y-190211962D01*
X239359349Y-190116724D01*
X239192682Y-189926248D01*
X239121253Y-189735771D01*
X239073634Y-189354819D01*
X239109348Y-189069105D01*
X239252205Y-188688152D01*
X239371254Y-188497676D01*
X239585539Y-188307200D01*
X239883158Y-188211962D01*
X240073634Y-188211962D01*
X240347444Y-188307200D01*
X240430777Y-188402438D01*
X241859348Y-189164343D02*
X242133157Y-189259581D01*
X242216492Y-189354819D01*
X242287920Y-189545295D01*
X242252206Y-189831010D01*
X242133158Y-190021486D01*
X242026015Y-190116724D01*
X241823634Y-190211962D01*
X241061729Y-190211962D01*
X241311729Y-188211962D01*
X241978396Y-188211962D01*
X242156967Y-188307200D01*
X242240300Y-188402438D01*
X242311730Y-188592914D01*
X242287920Y-188783390D01*
X242168872Y-188973867D01*
X242061729Y-189069105D01*
X241859348Y-189164343D01*
X241192681Y-189164343D01*
D10*
D11*
X178859343Y-185600057D02*
X178359343Y-185600057D01*
X178359343Y-186385771D02*
X178359343Y-184885771D01*
X179073629Y-184885771D01*
X179645057Y-186385771D02*
X179645057Y-185385771D01*
X179645057Y-184885771D02*
X179573628Y-184957200D01*
X179645057Y-185028629D01*
X179716485Y-184957200D01*
X179645057Y-184885771D01*
X179645057Y-185028629D01*
X180573629Y-186385771D02*
X180430771Y-186314343D01*
X180359343Y-186171486D01*
X180359343Y-184885771D01*
X181716485Y-186314343D02*
X181573628Y-186385771D01*
X181287914Y-186385771D01*
X181145057Y-186314343D01*
X181073628Y-186171486D01*
X181073628Y-185600057D01*
X181145057Y-185457200D01*
X181287914Y-185385771D01*
X181573628Y-185385771D01*
X181716485Y-185457200D01*
X181787914Y-185600057D01*
X181787914Y-185742914D01*
X181073628Y-185885771D01*
X182430771Y-186242914D02*
X182502199Y-186314343D01*
X182430771Y-186385771D01*
X182359342Y-186314343D01*
X182430771Y-186242914D01*
X182430771Y-186385771D01*
X182430771Y-185457200D02*
X182502199Y-185528629D01*
X182430771Y-185600057D01*
X182359342Y-185528629D01*
X182430771Y-185457200D01*
X182430771Y-185600057D01*
X184287914Y-185385771D02*
X184287914Y-186385771D01*
X184287914Y-185528629D02*
X184359342Y-185457200D01*
X184502200Y-185385771D01*
X184716485Y-185385771D01*
X184859342Y-185457200D01*
X184930771Y-185600057D01*
X184930771Y-186385771D01*
X185645057Y-186385771D02*
X185645057Y-185385771D01*
X185645057Y-185671486D02*
X185716485Y-185528629D01*
X185787914Y-185457200D01*
X185930771Y-185385771D01*
X186073628Y-185385771D01*
X186359342Y-185385771D02*
X186930771Y-185385771D01*
X186573628Y-186385771D02*
X186573628Y-185100057D01*
X186645056Y-184957200D01*
X186787914Y-184885771D01*
X186930771Y-184885771D01*
X187359342Y-185028629D02*
X187430771Y-184957200D01*
X187573628Y-184885771D01*
X187930771Y-184885771D01*
X188073628Y-184957200D01*
X188145057Y-185028629D01*
X188216485Y-185171486D01*
X188216485Y-185314343D01*
X188145057Y-185528629D01*
X187287914Y-186385771D01*
X188216485Y-186385771D01*
X189502199Y-185385771D02*
X189502199Y-186385771D01*
X189145056Y-184814343D02*
X188787913Y-185885771D01*
X189716485Y-185885771D01*
X189930770Y-186528629D02*
X191073627Y-186528629D01*
X191430770Y-186385771D02*
X191430770Y-184885771D01*
X191430770Y-185457200D02*
X191573627Y-185385771D01*
X191859341Y-185385771D01*
X192002198Y-185457200D01*
X192073627Y-185528629D01*
X192145056Y-185671486D01*
X192145056Y-186100057D01*
X192073627Y-186242914D01*
X192002198Y-186314343D01*
X191859341Y-186385771D01*
X191573627Y-186385771D01*
X191430770Y-186314343D01*
X192787913Y-186385771D02*
X192787913Y-185385771D01*
X192787913Y-185671486D02*
X192859341Y-185528629D01*
X192930770Y-185457200D01*
X193073627Y-185385771D01*
X193216484Y-185385771D01*
X194287912Y-186314343D02*
X194145055Y-186385771D01*
X193859341Y-186385771D01*
X193716484Y-186314343D01*
X193645055Y-186171486D01*
X193645055Y-185600057D01*
X193716484Y-185457200D01*
X193859341Y-185385771D01*
X194145055Y-185385771D01*
X194287912Y-185457200D01*
X194359341Y-185600057D01*
X194359341Y-185742914D01*
X193645055Y-185885771D01*
X195645055Y-186385771D02*
X195645055Y-185600057D01*
X195573626Y-185457200D01*
X195430769Y-185385771D01*
X195145055Y-185385771D01*
X195002198Y-185457200D01*
X195645055Y-186314343D02*
X195502198Y-186385771D01*
X195145055Y-186385771D01*
X195002198Y-186314343D01*
X194930769Y-186171486D01*
X194930769Y-186028629D01*
X195002198Y-185885771D01*
X195145055Y-185814343D01*
X195502198Y-185814343D01*
X195645055Y-185742914D01*
X196359341Y-186385771D02*
X196359341Y-184885771D01*
X196502198Y-185814343D02*
X196930769Y-186385771D01*
X196930769Y-185385771D02*
X196359341Y-185957200D01*
X197787913Y-186385771D02*
X197645055Y-186314343D01*
X197573627Y-186242914D01*
X197502198Y-186100057D01*
X197502198Y-185671486D01*
X197573627Y-185528629D01*
X197645055Y-185457200D01*
X197787913Y-185385771D01*
X198002198Y-185385771D01*
X198145055Y-185457200D01*
X198216484Y-185528629D01*
X198287913Y-185671486D01*
X198287913Y-186100057D01*
X198216484Y-186242914D01*
X198145055Y-186314343D01*
X198002198Y-186385771D01*
X197787913Y-186385771D01*
X199573627Y-185385771D02*
X199573627Y-186385771D01*
X198930770Y-185385771D02*
X198930770Y-186171486D01*
X199002198Y-186314343D01*
X199145056Y-186385771D01*
X199359341Y-186385771D01*
X199502198Y-186314343D01*
X199573627Y-186242914D01*
X200073627Y-185385771D02*
X200645056Y-185385771D01*
X200287913Y-184885771D02*
X200287913Y-186171486D01*
X200359341Y-186314343D01*
X200502199Y-186385771D01*
X200645056Y-186385771D01*
X200787913Y-186528629D02*
X201930770Y-186528629D01*
X202073627Y-185385771D02*
X202645056Y-185385771D01*
X202287913Y-186385771D02*
X202287913Y-185100057D01*
X202359341Y-184957200D01*
X202502199Y-184885771D01*
X202645056Y-184885771D01*
X203359342Y-186385771D02*
X203216484Y-186314343D01*
X203145056Y-186242914D01*
X203073627Y-186100057D01*
X203073627Y-185671486D01*
X203145056Y-185528629D01*
X203216484Y-185457200D01*
X203359342Y-185385771D01*
X203573627Y-185385771D01*
X203716484Y-185457200D01*
X203787913Y-185528629D01*
X203859342Y-185671486D01*
X203859342Y-186100057D01*
X203787913Y-186242914D01*
X203716484Y-186314343D01*
X203573627Y-186385771D01*
X203359342Y-186385771D01*
X204502199Y-186385771D02*
X204502199Y-185385771D01*
X204502199Y-185671486D02*
X204573627Y-185528629D01*
X204645056Y-185457200D01*
X204787913Y-185385771D01*
X204930770Y-185385771D01*
X205073627Y-186528629D02*
X206216484Y-186528629D01*
X206573627Y-186385771D02*
X206573627Y-184885771D01*
X206573627Y-185457200D02*
X206716484Y-185385771D01*
X207002198Y-185385771D01*
X207145055Y-185457200D01*
X207216484Y-185528629D01*
X207287913Y-185671486D01*
X207287913Y-186100057D01*
X207216484Y-186242914D01*
X207145055Y-186314343D01*
X207002198Y-186385771D01*
X206716484Y-186385771D01*
X206573627Y-186314343D01*
X207930770Y-186385771D02*
X207930770Y-185385771D01*
X207930770Y-185671486D02*
X208002198Y-185528629D01*
X208073627Y-185457200D01*
X208216484Y-185385771D01*
X208359341Y-185385771D01*
X209430769Y-186314343D02*
X209287912Y-186385771D01*
X209002198Y-186385771D01*
X208859341Y-186314343D01*
X208787912Y-186171486D01*
X208787912Y-185600057D01*
X208859341Y-185457200D01*
X209002198Y-185385771D01*
X209287912Y-185385771D01*
X209430769Y-185457200D01*
X209502198Y-185600057D01*
X209502198Y-185742914D01*
X208787912Y-185885771D01*
X210787912Y-186385771D02*
X210787912Y-185600057D01*
X210716483Y-185457200D01*
X210573626Y-185385771D01*
X210287912Y-185385771D01*
X210145055Y-185457200D01*
X210787912Y-186314343D02*
X210645055Y-186385771D01*
X210287912Y-186385771D01*
X210145055Y-186314343D01*
X210073626Y-186171486D01*
X210073626Y-186028629D01*
X210145055Y-185885771D01*
X210287912Y-185814343D01*
X210645055Y-185814343D01*
X210787912Y-185742914D01*
X212145055Y-186385771D02*
X212145055Y-184885771D01*
X212145055Y-186314343D02*
X212002198Y-186385771D01*
X211716484Y-186385771D01*
X211573626Y-186314343D01*
X211502198Y-186242914D01*
X211430769Y-186100057D01*
X211430769Y-185671486D01*
X211502198Y-185528629D01*
X211573626Y-185457200D01*
X211716484Y-185385771D01*
X212002198Y-185385771D01*
X212145055Y-185457200D01*
X212859341Y-186385771D02*
X212859341Y-184885771D01*
X212859341Y-185457200D02*
X213002198Y-185385771D01*
X213287912Y-185385771D01*
X213430769Y-185457200D01*
X213502198Y-185528629D01*
X213573627Y-185671486D01*
X213573627Y-186100057D01*
X213502198Y-186242914D01*
X213430769Y-186314343D01*
X213287912Y-186385771D01*
X213002198Y-186385771D01*
X212859341Y-186314343D01*
X214430770Y-186385771D02*
X214287912Y-186314343D01*
X214216484Y-186242914D01*
X214145055Y-186100057D01*
X214145055Y-185671486D01*
X214216484Y-185528629D01*
X214287912Y-185457200D01*
X214430770Y-185385771D01*
X214645055Y-185385771D01*
X214787912Y-185457200D01*
X214859341Y-185528629D01*
X214930770Y-185671486D01*
X214930770Y-186100057D01*
X214859341Y-186242914D01*
X214787912Y-186314343D01*
X214645055Y-186385771D01*
X214430770Y-186385771D01*
X216216484Y-186385771D02*
X216216484Y-185600057D01*
X216145055Y-185457200D01*
X216002198Y-185385771D01*
X215716484Y-185385771D01*
X215573627Y-185457200D01*
X216216484Y-186314343D02*
X216073627Y-186385771D01*
X215716484Y-186385771D01*
X215573627Y-186314343D01*
X215502198Y-186171486D01*
X215502198Y-186028629D01*
X215573627Y-185885771D01*
X215716484Y-185814343D01*
X216073627Y-185814343D01*
X216216484Y-185742914D01*
X216930770Y-186385771D02*
X216930770Y-185385771D01*
X216930770Y-185671486D02*
X217002198Y-185528629D01*
X217073627Y-185457200D01*
X217216484Y-185385771D01*
X217359341Y-185385771D01*
X218502198Y-186385771D02*
X218502198Y-184885771D01*
X218502198Y-186314343D02*
X218359341Y-186385771D01*
X218073627Y-186385771D01*
X217930769Y-186314343D01*
X217859341Y-186242914D01*
X217787912Y-186100057D01*
X217787912Y-185671486D01*
X217859341Y-185528629D01*
X217930769Y-185457200D01*
X218073627Y-185385771D01*
X218359341Y-185385771D01*
X218502198Y-185457200D01*
X219216484Y-186242914D02*
X219287912Y-186314343D01*
X219216484Y-186385771D01*
X219145055Y-186314343D01*
X219216484Y-186242914D01*
X219216484Y-186385771D01*
X219930770Y-186385771D02*
X219930770Y-184885771D01*
X220073627Y-185814343D02*
X220502198Y-186385771D01*
X220502198Y-185385771D02*
X219930770Y-185957200D01*
X221145056Y-186385771D02*
X221145056Y-185385771D01*
X221145056Y-184885771D02*
X221073627Y-184957200D01*
X221145056Y-185028629D01*
X221216484Y-184957200D01*
X221145056Y-184885771D01*
X221145056Y-185028629D01*
X222502199Y-186314343D02*
X222359342Y-186385771D01*
X222073628Y-186385771D01*
X221930770Y-186314343D01*
X221859342Y-186242914D01*
X221787913Y-186100057D01*
X221787913Y-185671486D01*
X221859342Y-185528629D01*
X221930770Y-185457200D01*
X222073628Y-185385771D01*
X222359342Y-185385771D01*
X222502199Y-185457200D01*
X223787913Y-186385771D02*
X223787913Y-185600057D01*
X223716484Y-185457200D01*
X223573627Y-185385771D01*
X223287913Y-185385771D01*
X223145056Y-185457200D01*
X223787913Y-186314343D02*
X223645056Y-186385771D01*
X223287913Y-186385771D01*
X223145056Y-186314343D01*
X223073627Y-186171486D01*
X223073627Y-186028629D01*
X223145056Y-185885771D01*
X223287913Y-185814343D01*
X223645056Y-185814343D01*
X223787913Y-185742914D01*
X225145056Y-186385771D02*
X225145056Y-184885771D01*
X225145056Y-186314343D02*
X225002199Y-186385771D01*
X224716485Y-186385771D01*
X224573627Y-186314343D01*
X224502199Y-186242914D01*
X224430770Y-186100057D01*
X224430770Y-185671486D01*
X224502199Y-185528629D01*
X224573627Y-185457200D01*
X224716485Y-185385771D01*
X225002199Y-185385771D01*
X225145056Y-185457200D01*
X225502199Y-186528629D02*
X226645056Y-186528629D01*
X227002199Y-185385771D02*
X227002199Y-186885771D01*
X227002199Y-185457200D02*
X227145056Y-185385771D01*
X227430770Y-185385771D01*
X227573627Y-185457200D01*
X227645056Y-185528629D01*
X227716485Y-185671486D01*
X227716485Y-186100057D01*
X227645056Y-186242914D01*
X227573627Y-186314343D01*
X227430770Y-186385771D01*
X227145056Y-186385771D01*
X227002199Y-186314343D01*
X229002199Y-186314343D02*
X228859342Y-186385771D01*
X228573628Y-186385771D01*
X228430770Y-186314343D01*
X228359342Y-186242914D01*
X228287913Y-186100057D01*
X228287913Y-185671486D01*
X228359342Y-185528629D01*
X228430770Y-185457200D01*
X228573628Y-185385771D01*
X228859342Y-185385771D01*
X229002199Y-185457200D01*
X229645056Y-186385771D02*
X229645056Y-184885771D01*
X229645056Y-185457200D02*
X229787913Y-185385771D01*
X230073627Y-185385771D01*
X230216484Y-185457200D01*
X230287913Y-185528629D01*
X230359342Y-185671486D01*
X230359342Y-186100057D01*
X230287913Y-186242914D01*
X230216484Y-186314343D01*
X230073627Y-186385771D01*
X229787913Y-186385771D01*
X229645056Y-186314343D01*
D10*
D11*
X177002200Y-181507200D02*
X285002200Y-181507200D01*
D10*
D11*
X178287914Y-183614343D02*
X178502200Y-183685771D01*
X178859343Y-183685771D01*
X179002200Y-183614343D01*
X179073629Y-183542914D01*
X179145057Y-183400057D01*
X179145057Y-183257200D01*
X179073629Y-183114343D01*
X179002200Y-183042914D01*
X178859343Y-182971486D01*
X178573629Y-182900057D01*
X178430771Y-182828629D01*
X178359343Y-182757200D01*
X178287914Y-182614343D01*
X178287914Y-182471486D01*
X178359343Y-182328629D01*
X178430771Y-182257200D01*
X178573629Y-182185771D01*
X178930771Y-182185771D01*
X179145057Y-182257200D01*
X179787914Y-183685771D02*
X179787914Y-182185771D01*
X180430771Y-183685771D02*
X180430771Y-182900057D01*
X180359342Y-182757200D01*
X180216485Y-182685771D01*
X180002200Y-182685771D01*
X179859342Y-182757200D01*
X179787914Y-182828629D01*
X181716485Y-183614343D02*
X181573628Y-183685771D01*
X181287914Y-183685771D01*
X181145057Y-183614343D01*
X181073628Y-183471486D01*
X181073628Y-182900057D01*
X181145057Y-182757200D01*
X181287914Y-182685771D01*
X181573628Y-182685771D01*
X181716485Y-182757200D01*
X181787914Y-182900057D01*
X181787914Y-183042914D01*
X181073628Y-183185771D01*
X183002199Y-183614343D02*
X182859342Y-183685771D01*
X182573628Y-183685771D01*
X182430771Y-183614343D01*
X182359342Y-183471486D01*
X182359342Y-182900057D01*
X182430771Y-182757200D01*
X182573628Y-182685771D01*
X182859342Y-182685771D01*
X183002199Y-182757200D01*
X183073628Y-182900057D01*
X183073628Y-183042914D01*
X182359342Y-183185771D01*
X183502199Y-182685771D02*
X184073628Y-182685771D01*
X183716485Y-182185771D02*
X183716485Y-183471486D01*
X183787913Y-183614343D01*
X183930771Y-183685771D01*
X184073628Y-183685771D01*
X184573628Y-183542914D02*
X184645056Y-183614343D01*
X184573628Y-183685771D01*
X184502199Y-183614343D01*
X184573628Y-183542914D01*
X184573628Y-183685771D01*
X184573628Y-182757200D02*
X184645056Y-182828629D01*
X184573628Y-182900057D01*
X184502199Y-182828629D01*
X184573628Y-182757200D01*
X184573628Y-182900057D01*
D10*
D12*
X178359343Y-179900057D02*
X178859343Y-179900057D01*
X179073629Y-180685771D02*
X178359343Y-180685771D01*
X178359343Y-179185771D01*
X179073629Y-179185771D01*
X179716486Y-180685771D02*
X179716486Y-179685771D01*
X179716486Y-179971486D02*
X179787914Y-179828629D01*
X179859343Y-179757200D01*
X180002200Y-179685771D01*
X180145057Y-179685771D01*
X180502200Y-179685771D02*
X180787914Y-180685771D01*
X181073628Y-179971486D01*
X181359343Y-180685771D01*
X181645057Y-179685771D01*
X182216486Y-180685771D02*
X182216486Y-179685771D01*
X182216486Y-179185771D02*
X182145057Y-179257200D01*
X182216486Y-179328629D01*
X182287914Y-179257200D01*
X182216486Y-179185771D01*
X182216486Y-179328629D01*
X182930772Y-179685771D02*
X182930772Y-180685771D01*
X182930772Y-179828629D02*
X183002200Y-179757200D01*
X183145058Y-179685771D01*
X183359343Y-179685771D01*
X183502200Y-179757200D01*
X183573629Y-179900057D01*
X183573629Y-180685771D01*
X185359343Y-180257200D02*
X186073629Y-180257200D01*
X185216486Y-180685771D02*
X185716486Y-179185771D01*
X186216486Y-180685771D01*
X186716486Y-180685771D02*
X186716486Y-179185771D01*
X187573629Y-180685771D01*
X187573629Y-179185771D01*
X188287915Y-180685771D02*
X188287915Y-179185771D01*
X188645058Y-179185771D01*
X188859343Y-179257200D01*
X189002201Y-179400057D01*
X189073629Y-179542914D01*
X189145058Y-179828629D01*
X189145058Y-180042914D01*
X189073629Y-180328629D01*
X189002201Y-180471486D01*
X188859343Y-180614343D01*
X188645058Y-180685771D01*
X188287915Y-180685771D01*
X190645058Y-180685771D02*
X190145058Y-179971486D01*
X189787915Y-180685771D02*
X189787915Y-179185771D01*
X190359343Y-179185771D01*
X190502201Y-179257200D01*
X190573629Y-179328629D01*
X190645058Y-179471486D01*
X190645058Y-179685771D01*
X190573629Y-179828629D01*
X190502201Y-179900057D01*
X190359343Y-179971486D01*
X189787915Y-179971486D01*
X191287915Y-179900057D02*
X191787915Y-179900057D01*
X192002201Y-180685771D02*
X191287915Y-180685771D01*
X191287915Y-179185771D01*
X192002201Y-179185771D01*
D10*
D11*
X197002200Y-191507200D02*
X197002200Y-194507200D01*
D10*
D11*
X261002200Y-191507200D02*
X261002200Y-198007200D01*
D14*
X123090145Y-84159286D02*
X123090145Y-83409286D01*
X123518717Y-84159286D01*
X123518717Y-83409286D01*
X124304431Y-84159286D02*
X124054431Y-83802143D01*
X123875859Y-84159286D02*
X123875859Y-83409286D01*
X124161574Y-83409286D01*
X124233002Y-83445000D01*
X124268717Y-83480714D01*
X124304431Y-83552143D01*
X124304431Y-83659286D01*
X124268717Y-83730714D01*
X124233002Y-83766429D01*
X124161574Y-83802143D01*
X123875859Y-83802143D01*
X124875859Y-83766429D02*
X124625859Y-83766429D01*
X124625859Y-84159286D02*
X124625859Y-83409286D01*
X124983002Y-83409286D01*
X125233002Y-83480714D02*
X125268716Y-83445000D01*
X125340145Y-83409286D01*
X125518716Y-83409286D01*
X125590145Y-83445000D01*
X125625859Y-83480714D01*
X125661574Y-83552143D01*
X125661574Y-83623571D01*
X125625859Y-83730714D01*
X125197288Y-84159286D01*
X125661574Y-84159286D01*
X126304431Y-83659286D02*
X126304431Y-84159286D01*
X126125860Y-83373571D02*
X125947288Y-83909286D01*
X126411574Y-83909286D01*
X127268717Y-84159286D02*
X127268717Y-83409286D01*
X127268717Y-83695000D02*
X127340146Y-83659286D01*
X127483003Y-83659286D01*
X127554432Y-83695000D01*
X127590146Y-83730714D01*
X127625860Y-83802143D01*
X127625860Y-84016429D01*
X127590146Y-84087857D01*
X127554432Y-84123571D01*
X127483003Y-84159286D01*
X127340146Y-84159286D01*
X127268717Y-84123571D01*
X127947288Y-84159286D02*
X127947288Y-83659286D01*
X127947288Y-83802143D02*
X127983003Y-83730714D01*
X128018717Y-83695000D01*
X128090146Y-83659286D01*
X128161574Y-83659286D01*
X128697289Y-84123571D02*
X128625860Y-84159286D01*
X128483003Y-84159286D01*
X128411574Y-84123571D01*
X128375860Y-84052143D01*
X128375860Y-83766429D01*
X128411574Y-83695000D01*
X128483003Y-83659286D01*
X128625860Y-83659286D01*
X128697289Y-83695000D01*
X128733003Y-83766429D01*
X128733003Y-83837857D01*
X128375860Y-83909286D01*
X129375860Y-84159286D02*
X129375860Y-83766429D01*
X129340146Y-83695000D01*
X129268717Y-83659286D01*
X129125860Y-83659286D01*
X129054431Y-83695000D01*
X129375860Y-84123571D02*
X129304431Y-84159286D01*
X129125860Y-84159286D01*
X129054431Y-84123571D01*
X129018717Y-84052143D01*
X129018717Y-83980714D01*
X129054431Y-83909286D01*
X129125860Y-83873571D01*
X129304431Y-83873571D01*
X129375860Y-83837857D01*
X129733002Y-84159286D02*
X129733002Y-83409286D01*
X129804431Y-83873571D02*
X130018717Y-84159286D01*
X130018717Y-83659286D02*
X129733002Y-83945000D01*
X130447288Y-84159286D02*
X130375860Y-84123571D01*
X130340145Y-84087857D01*
X130304431Y-84016429D01*
X130304431Y-83802143D01*
X130340145Y-83730714D01*
X130375860Y-83695000D01*
X130447288Y-83659286D01*
X130554431Y-83659286D01*
X130625860Y-83695000D01*
X130661574Y-83730714D01*
X130697288Y-83802143D01*
X130697288Y-84016429D01*
X130661574Y-84087857D01*
X130625860Y-84123571D01*
X130554431Y-84159286D01*
X130447288Y-84159286D01*
X131340145Y-83659286D02*
X131340145Y-84159286D01*
X131018716Y-83659286D02*
X131018716Y-84052143D01*
X131054431Y-84123571D01*
X131125859Y-84159286D01*
X131233002Y-84159286D01*
X131304431Y-84123571D01*
X131340145Y-84087857D01*
X131590145Y-83659286D02*
X131875859Y-83659286D01*
X131697287Y-83409286D02*
X131697287Y-84052143D01*
X131733002Y-84123571D01*
X131804430Y-84159286D01*
X131875859Y-84159286D01*
X132697287Y-84159286D02*
X132697287Y-83409286D01*
X132697287Y-83695000D02*
X132768716Y-83659286D01*
X132911573Y-83659286D01*
X132983002Y-83695000D01*
X133018716Y-83730714D01*
X133054430Y-83802143D01*
X133054430Y-84016429D01*
X133018716Y-84087857D01*
X132983002Y-84123571D01*
X132911573Y-84159286D01*
X132768716Y-84159286D01*
X132697287Y-84123571D01*
X133483001Y-84159286D02*
X133411573Y-84123571D01*
X133375858Y-84087857D01*
X133340144Y-84016429D01*
X133340144Y-83802143D01*
X133375858Y-83730714D01*
X133411573Y-83695000D01*
X133483001Y-83659286D01*
X133590144Y-83659286D01*
X133661573Y-83695000D01*
X133697287Y-83730714D01*
X133733001Y-83802143D01*
X133733001Y-84016429D01*
X133697287Y-84087857D01*
X133661573Y-84123571D01*
X133590144Y-84159286D01*
X133483001Y-84159286D01*
X134375858Y-84159286D02*
X134375858Y-83766429D01*
X134340144Y-83695000D01*
X134268715Y-83659286D01*
X134125858Y-83659286D01*
X134054429Y-83695000D01*
X134375858Y-84123571D02*
X134304429Y-84159286D01*
X134125858Y-84159286D01*
X134054429Y-84123571D01*
X134018715Y-84052143D01*
X134018715Y-83980714D01*
X134054429Y-83909286D01*
X134125858Y-83873571D01*
X134304429Y-83873571D01*
X134375858Y-83837857D01*
X134733000Y-84159286D02*
X134733000Y-83659286D01*
X134733000Y-83802143D02*
X134768715Y-83730714D01*
X134804429Y-83695000D01*
X134875858Y-83659286D01*
X134947286Y-83659286D01*
X135518715Y-84159286D02*
X135518715Y-83409286D01*
X135518715Y-84123571D02*
X135447286Y-84159286D01*
X135304429Y-84159286D01*
X135233001Y-84123571D01*
X135197286Y-84087857D01*
X135161572Y-84016429D01*
X135161572Y-83802143D01*
X135197286Y-83730714D01*
X135233001Y-83695000D01*
X135304429Y-83659286D01*
X135447286Y-83659286D01*
X135518715Y-83695000D01*
X136340144Y-83659286D02*
X136625858Y-83659286D01*
X136447286Y-84159286D02*
X136447286Y-83516429D01*
X136483001Y-83445000D01*
X136554429Y-83409286D01*
X136625858Y-83409286D01*
X136983000Y-84159286D02*
X136911572Y-84123571D01*
X136875857Y-84087857D01*
X136840143Y-84016429D01*
X136840143Y-83802143D01*
X136875857Y-83730714D01*
X136911572Y-83695000D01*
X136983000Y-83659286D01*
X137090143Y-83659286D01*
X137161572Y-83695000D01*
X137197286Y-83730714D01*
X137233000Y-83802143D01*
X137233000Y-84016429D01*
X137197286Y-84087857D01*
X137161572Y-84123571D01*
X137090143Y-84159286D01*
X136983000Y-84159286D01*
X137554428Y-84159286D02*
X137554428Y-83659286D01*
X137554428Y-83802143D02*
X137590143Y-83730714D01*
X137625857Y-83695000D01*
X137697286Y-83659286D01*
X137768714Y-83659286D01*
X138840143Y-83766429D02*
X138947286Y-83802143D01*
X138983001Y-83837857D01*
X139018715Y-83909286D01*
X139018715Y-84016429D01*
X138983001Y-84087857D01*
X138947286Y-84123571D01*
X138875858Y-84159286D01*
X138590143Y-84159286D01*
X138590143Y-83409286D01*
X138840143Y-83409286D01*
X138911572Y-83445000D01*
X138947286Y-83480714D01*
X138983001Y-83552143D01*
X138983001Y-83623571D01*
X138947286Y-83695000D01*
X138911572Y-83730714D01*
X138840143Y-83766429D01*
X138590143Y-83766429D01*
X139340143Y-84159286D02*
X139340143Y-83659286D01*
X139340143Y-83802143D02*
X139375858Y-83730714D01*
X139411572Y-83695000D01*
X139483001Y-83659286D01*
X139554429Y-83659286D01*
X140090144Y-84123571D02*
X140018715Y-84159286D01*
X139875858Y-84159286D01*
X139804429Y-84123571D01*
X139768715Y-84052143D01*
X139768715Y-83766429D01*
X139804429Y-83695000D01*
X139875858Y-83659286D01*
X140018715Y-83659286D01*
X140090144Y-83695000D01*
X140125858Y-83766429D01*
X140125858Y-83837857D01*
X139768715Y-83909286D01*
X140768715Y-84159286D02*
X140768715Y-83766429D01*
X140733001Y-83695000D01*
X140661572Y-83659286D01*
X140518715Y-83659286D01*
X140447286Y-83695000D01*
X140768715Y-84123571D02*
X140697286Y-84159286D01*
X140518715Y-84159286D01*
X140447286Y-84123571D01*
X140411572Y-84052143D01*
X140411572Y-83980714D01*
X140447286Y-83909286D01*
X140518715Y-83873571D01*
X140697286Y-83873571D01*
X140768715Y-83837857D01*
X141447286Y-84159286D02*
X141447286Y-83409286D01*
X141447286Y-84123571D02*
X141375857Y-84159286D01*
X141233000Y-84159286D01*
X141161572Y-84123571D01*
X141125857Y-84087857D01*
X141090143Y-84016429D01*
X141090143Y-83802143D01*
X141125857Y-83730714D01*
X141161572Y-83695000D01*
X141233000Y-83659286D01*
X141375857Y-83659286D01*
X141447286Y-83695000D01*
X141804428Y-84159286D02*
X141804428Y-83409286D01*
X141804428Y-83695000D02*
X141875857Y-83659286D01*
X142018714Y-83659286D01*
X142090143Y-83695000D01*
X142125857Y-83730714D01*
X142161571Y-83802143D01*
X142161571Y-84016429D01*
X142125857Y-84087857D01*
X142090143Y-84123571D01*
X142018714Y-84159286D01*
X141875857Y-84159286D01*
X141804428Y-84123571D01*
X142590142Y-84159286D02*
X142518714Y-84123571D01*
X142482999Y-84087857D01*
X142447285Y-84016429D01*
X142447285Y-83802143D01*
X142482999Y-83730714D01*
X142518714Y-83695000D01*
X142590142Y-83659286D01*
X142697285Y-83659286D01*
X142768714Y-83695000D01*
X142804428Y-83730714D01*
X142840142Y-83802143D01*
X142840142Y-84016429D01*
X142804428Y-84087857D01*
X142768714Y-84123571D01*
X142697285Y-84159286D01*
X142590142Y-84159286D01*
X143482999Y-84159286D02*
X143482999Y-83766429D01*
X143447285Y-83695000D01*
X143375856Y-83659286D01*
X143232999Y-83659286D01*
X143161570Y-83695000D01*
X143482999Y-84123571D02*
X143411570Y-84159286D01*
X143232999Y-84159286D01*
X143161570Y-84123571D01*
X143125856Y-84052143D01*
X143125856Y-83980714D01*
X143161570Y-83909286D01*
X143232999Y-83873571D01*
X143411570Y-83873571D01*
X143482999Y-83837857D01*
X143840141Y-84159286D02*
X143840141Y-83659286D01*
X143840141Y-83802143D02*
X143875856Y-83730714D01*
X143911570Y-83695000D01*
X143982999Y-83659286D01*
X144054427Y-83659286D01*
X144625856Y-84159286D02*
X144625856Y-83409286D01*
X144625856Y-84123571D02*
X144554427Y-84159286D01*
X144411570Y-84159286D01*
X144340142Y-84123571D01*
X144304427Y-84087857D01*
X144268713Y-84016429D01*
X144268713Y-83802143D01*
X144304427Y-83730714D01*
X144340142Y-83695000D01*
X144411570Y-83659286D01*
X144554427Y-83659286D01*
X144625856Y-83695000D01*
D15*
X123139334Y-84960667D02*
X123372667Y-85660667D01*
X123606000Y-84960667D01*
X124206000Y-85660667D02*
X123806000Y-85660667D01*
X124006000Y-85660667D02*
X124006000Y-84960667D01*
X123939334Y-85060667D01*
X123872667Y-85127333D01*
X123806000Y-85160667D01*
X124506001Y-85594000D02*
X124539334Y-85627333D01*
X124506001Y-85660667D01*
X124472667Y-85627333D01*
X124506001Y-85594000D01*
X124506001Y-85660667D01*
X125206000Y-85660667D02*
X124806000Y-85660667D01*
X125006000Y-85660667D02*
X125006000Y-84960667D01*
X124939334Y-85060667D01*
X124872667Y-85127333D01*
X124806000Y-85160667D01*
D16*
X155219477Y-85833000D02*
X155143286Y-85794905D01*
X155029001Y-85794905D01*
X154914715Y-85833000D01*
X154838524Y-85909190D01*
X154800429Y-85985381D01*
X154762334Y-86137762D01*
X154762334Y-86252048D01*
X154800429Y-86404429D01*
X154838524Y-86480619D01*
X154914715Y-86556810D01*
X155029001Y-86594905D01*
X155105191Y-86594905D01*
X155219477Y-86556810D01*
X155257572Y-86518714D01*
X155257572Y-86252048D01*
X155105191Y-86252048D01*
X155600429Y-86594905D02*
X155600429Y-85794905D01*
X156057572Y-86594905D01*
X156057572Y-85794905D01*
X156438524Y-86594905D02*
X156438524Y-85794905D01*
X156629000Y-85794905D01*
X156743286Y-85833000D01*
X156819477Y-85909190D01*
X156857572Y-85985381D01*
X156895667Y-86137762D01*
X156895667Y-86252048D01*
X156857572Y-86404429D01*
X156819477Y-86480619D01*
X156743286Y-86556810D01*
X156629000Y-86594905D01*
X156438524Y-86594905D01*
X155714714Y-89312714D02*
X155676619Y-89350810D01*
X155562333Y-89388905D01*
X155486143Y-89388905D01*
X155371857Y-89350810D01*
X155295666Y-89274619D01*
X155257571Y-89198429D01*
X155219476Y-89046048D01*
X155219476Y-88931762D01*
X155257571Y-88779381D01*
X155295666Y-88703190D01*
X155371857Y-88627000D01*
X155486143Y-88588905D01*
X155562333Y-88588905D01*
X155676619Y-88627000D01*
X155714714Y-88665095D01*
X156057571Y-88969857D02*
X156324238Y-88969857D01*
X156438524Y-89388905D02*
X156057571Y-89388905D01*
X156057571Y-88588905D01*
X156438524Y-88588905D01*
X154800429Y-91636810D02*
X154914715Y-91674905D01*
X155105191Y-91674905D01*
X155181381Y-91636810D01*
X155219477Y-91598714D01*
X155257572Y-91522524D01*
X155257572Y-91446333D01*
X155219477Y-91370143D01*
X155181381Y-91332048D01*
X155105191Y-91293952D01*
X154952810Y-91255857D01*
X154876619Y-91217762D01*
X154838524Y-91179667D01*
X154800429Y-91103476D01*
X154800429Y-91027286D01*
X154838524Y-90951095D01*
X154876619Y-90913000D01*
X154952810Y-90874905D01*
X155143286Y-90874905D01*
X155257572Y-90913000D01*
X156057572Y-91598714D02*
X156019477Y-91636810D01*
X155905191Y-91674905D01*
X155829001Y-91674905D01*
X155714715Y-91636810D01*
X155638524Y-91560619D01*
X155600429Y-91484429D01*
X155562334Y-91332048D01*
X155562334Y-91217762D01*
X155600429Y-91065381D01*
X155638524Y-90989190D01*
X155714715Y-90913000D01*
X155829001Y-90874905D01*
X155905191Y-90874905D01*
X156019477Y-90913000D01*
X156057572Y-90951095D01*
X156400429Y-91674905D02*
X156400429Y-90874905D01*
X156857572Y-91674905D02*
X156514715Y-91217762D01*
X156857572Y-90874905D02*
X156400429Y-91332048D01*
X154698857Y-94214905D02*
X154698857Y-93414905D01*
X154965524Y-93986333D01*
X155232191Y-93414905D01*
X155232191Y-94214905D01*
X155613143Y-94214905D02*
X155613143Y-93414905D01*
X155956000Y-94176810D02*
X156070286Y-94214905D01*
X156260762Y-94214905D01*
X156336952Y-94176810D01*
X156375048Y-94138714D01*
X156413143Y-94062524D01*
X156413143Y-93986333D01*
X156375048Y-93910143D01*
X156336952Y-93872048D01*
X156260762Y-93833952D01*
X156108381Y-93795857D01*
X156032190Y-93757762D01*
X155994095Y-93719667D01*
X155956000Y-93643476D01*
X155956000Y-93567286D01*
X155994095Y-93491095D01*
X156032190Y-93453000D01*
X156108381Y-93414905D01*
X156298857Y-93414905D01*
X156413143Y-93453000D01*
X156908381Y-93414905D02*
X157060762Y-93414905D01*
X157136953Y-93453000D01*
X157213143Y-93529190D01*
X157251238Y-93681571D01*
X157251238Y-93948238D01*
X157213143Y-94100619D01*
X157136953Y-94176810D01*
X157060762Y-94214905D01*
X156908381Y-94214905D01*
X156832191Y-94176810D01*
X156756000Y-94100619D01*
X156717905Y-93948238D01*
X156717905Y-93681571D01*
X156756000Y-93529190D01*
X156832191Y-93453000D01*
X156908381Y-93414905D01*
X155263953Y-96754905D02*
X155263953Y-95954905D01*
X156102048Y-96754905D02*
X155835381Y-96373952D01*
X155644905Y-96754905D02*
X155644905Y-95954905D01*
X155949667Y-95954905D01*
X156025858Y-95993000D01*
X156063953Y-96031095D01*
X156102048Y-96107286D01*
X156102048Y-96221571D01*
X156063953Y-96297762D01*
X156025858Y-96335857D01*
X155949667Y-96373952D01*
X155644905Y-96373952D01*
X156978239Y-96831095D02*
X156902048Y-96793000D01*
X156825858Y-96716810D01*
X156711572Y-96602524D01*
X156635381Y-96564429D01*
X156559191Y-96564429D01*
X156597286Y-96754905D02*
X156521096Y-96716810D01*
X156444905Y-96640619D01*
X156406810Y-96488238D01*
X156406810Y-96221571D01*
X156444905Y-96069190D01*
X156521096Y-95993000D01*
X156597286Y-95954905D01*
X156749667Y-95954905D01*
X156825858Y-95993000D01*
X156902048Y-96069190D01*
X156940143Y-96221571D01*
X156940143Y-96488238D01*
X156902048Y-96640619D01*
X156825858Y-96716810D01*
X156749667Y-96754905D01*
X156597286Y-96754905D01*
X154825857Y-99294905D02*
X154825857Y-98494905D01*
X155092524Y-99066333D01*
X155359191Y-98494905D01*
X155359191Y-99294905D01*
X155892524Y-98494905D02*
X156044905Y-98494905D01*
X156121096Y-98533000D01*
X156197286Y-98609190D01*
X156235381Y-98761571D01*
X156235381Y-99028238D01*
X156197286Y-99180619D01*
X156121096Y-99256810D01*
X156044905Y-99294905D01*
X155892524Y-99294905D01*
X155816334Y-99256810D01*
X155740143Y-99180619D01*
X155702048Y-99028238D01*
X155702048Y-98761571D01*
X155740143Y-98609190D01*
X155816334Y-98533000D01*
X155892524Y-98494905D01*
X156540143Y-99256810D02*
X156654429Y-99294905D01*
X156844905Y-99294905D01*
X156921095Y-99256810D01*
X156959191Y-99218714D01*
X156997286Y-99142524D01*
X156997286Y-99066333D01*
X156959191Y-98990143D01*
X156921095Y-98952048D01*
X156844905Y-98913952D01*
X156692524Y-98875857D01*
X156616333Y-98837762D01*
X156578238Y-98799667D01*
X156540143Y-98723476D01*
X156540143Y-98647286D01*
X156578238Y-98571095D01*
X156616333Y-98533000D01*
X156692524Y-98494905D01*
X156883000Y-98494905D01*
X156997286Y-98533000D01*
X157340143Y-99294905D02*
X157340143Y-98494905D01*
X155530619Y-101758714D02*
X155492524Y-101796810D01*
X155378238Y-101834905D01*
X155302048Y-101834905D01*
X155187762Y-101796810D01*
X155111571Y-101720619D01*
X155073476Y-101644429D01*
X155035381Y-101492048D01*
X155035381Y-101377762D01*
X155073476Y-101225381D01*
X155111571Y-101149190D01*
X155187762Y-101073000D01*
X155302048Y-101034905D01*
X155378238Y-101034905D01*
X155492524Y-101073000D01*
X155530619Y-101111095D01*
X155835381Y-101796810D02*
X155949667Y-101834905D01*
X156140143Y-101834905D01*
X156216333Y-101796810D01*
X156254429Y-101758714D01*
X156292524Y-101682524D01*
X156292524Y-101606333D01*
X156254429Y-101530143D01*
X156216333Y-101492048D01*
X156140143Y-101453952D01*
X155987762Y-101415857D01*
X155911571Y-101377762D01*
X155873476Y-101339667D01*
X155835381Y-101263476D01*
X155835381Y-101187286D01*
X155873476Y-101111095D01*
X155911571Y-101073000D01*
X155987762Y-101034905D01*
X156178238Y-101034905D01*
X156292524Y-101073000D01*
X156635381Y-101834905D02*
X156635381Y-101034905D01*
X157092524Y-101834905D01*
X157092524Y-101034905D01*
X155003619Y-103701905D02*
X155270286Y-104501905D01*
X155536953Y-103701905D01*
X156146476Y-104463810D02*
X156070286Y-104501905D01*
X155917905Y-104501905D01*
X155841714Y-104463810D01*
X155803619Y-104425714D01*
X155765524Y-104349524D01*
X155765524Y-104120952D01*
X155803619Y-104044762D01*
X155841714Y-104006667D01*
X155917905Y-103968571D01*
X156070286Y-103968571D01*
X156146476Y-104006667D01*
X156832190Y-104463810D02*
X156756000Y-104501905D01*
X156603619Y-104501905D01*
X156527428Y-104463810D01*
X156489333Y-104425714D01*
X156451238Y-104349524D01*
X156451238Y-104120952D01*
X156489333Y-104044762D01*
X156527428Y-104006667D01*
X156603619Y-103968571D01*
X156756000Y-103968571D01*
X156832190Y-104006667D01*
D11*
X153035000Y-86995000D02*
X153035000Y-103505000D01*
X153035000Y-103505000D02*
X125095000Y-103505000D01*
X125095000Y-103505000D02*
X125095000Y-86995000D01*
X125095000Y-86995000D02*
X153035000Y-86995000D01*
D17*
X157928000Y-105470000D02*
X160588000Y-105470000D01*
X157928000Y-87630000D02*
X157928000Y-105470000D01*
X160588000Y-87630000D02*
X160588000Y-105470000D01*
X157928000Y-87630000D02*
X160588000Y-87630000D01*
X157928000Y-86360000D02*
X157928000Y-85030000D01*
X157928000Y-85030000D02*
X159258000Y-85030000D01*
X140835000Y-97702000D02*
X139835000Y-97702000D01*
X139835000Y-99402000D02*
X140835000Y-99402000D01*
D11*
X138303095Y-95337381D02*
X138303095Y-96146905D01*
X138350714Y-96242143D01*
X138398333Y-96289762D01*
X138493571Y-96337381D01*
X138684048Y-96337381D01*
X138779286Y-96289762D01*
X138826905Y-96242143D01*
X138874524Y-96146905D01*
X138874524Y-95337381D01*
X139874524Y-96337381D02*
X139303095Y-96337381D01*
X139588809Y-96337381D02*
X139588809Y-95337381D01*
X139493571Y-95480238D01*
X139398333Y-95575476D01*
X139303095Y-95623095D01*
D14*
X142601190Y-99020237D02*
X143101190Y-98853570D01*
X142601190Y-98686904D01*
X143077381Y-98305952D02*
X143101190Y-98353571D01*
X143101190Y-98448809D01*
X143077381Y-98496428D01*
X143053571Y-98520237D01*
X143005952Y-98544047D01*
X142863095Y-98544047D01*
X142815476Y-98520237D01*
X142791667Y-98496428D01*
X142767857Y-98448809D01*
X142767857Y-98353571D01*
X142791667Y-98305952D01*
X143077381Y-97877381D02*
X143101190Y-97925000D01*
X143101190Y-98020238D01*
X143077381Y-98067857D01*
X143053571Y-98091666D01*
X143005952Y-98115476D01*
X142863095Y-98115476D01*
X142815476Y-98091666D01*
X142791667Y-98067857D01*
X142767857Y-98020238D01*
X142767857Y-97925000D01*
X142791667Y-97877381D01*
X143053571Y-96230238D02*
X143077381Y-96254048D01*
X143101190Y-96325476D01*
X143101190Y-96373095D01*
X143077381Y-96444524D01*
X143029762Y-96492143D01*
X142982143Y-96515952D01*
X142886905Y-96539762D01*
X142815476Y-96539762D01*
X142720238Y-96515952D01*
X142672619Y-96492143D01*
X142625000Y-96444524D01*
X142601190Y-96373095D01*
X142601190Y-96325476D01*
X142625000Y-96254048D01*
X142648810Y-96230238D01*
X143077381Y-96039762D02*
X143101190Y-95968333D01*
X143101190Y-95849286D01*
X143077381Y-95801667D01*
X143053571Y-95777857D01*
X143005952Y-95754048D01*
X142958333Y-95754048D01*
X142910714Y-95777857D01*
X142886905Y-95801667D01*
X142863095Y-95849286D01*
X142839286Y-95944524D01*
X142815476Y-95992143D01*
X142791667Y-96015952D01*
X142744048Y-96039762D01*
X142696429Y-96039762D01*
X142648810Y-96015952D01*
X142625000Y-95992143D01*
X142601190Y-95944524D01*
X142601190Y-95825476D01*
X142625000Y-95754048D01*
X143101190Y-95539762D02*
X142601190Y-95539762D01*
X143101190Y-95254048D01*
X142601190Y-95254048D01*
X143101190Y-94130714D02*
X142601190Y-94130714D01*
X142958333Y-93964048D01*
X142601190Y-93797381D01*
X143101190Y-93797381D01*
X142601190Y-93464047D02*
X142601190Y-93368809D01*
X142625000Y-93321190D01*
X142672619Y-93273571D01*
X142767857Y-93249762D01*
X142934524Y-93249762D01*
X143029762Y-93273571D01*
X143077381Y-93321190D01*
X143101190Y-93368809D01*
X143101190Y-93464047D01*
X143077381Y-93511666D01*
X143029762Y-93559285D01*
X142934524Y-93583095D01*
X142767857Y-93583095D01*
X142672619Y-93559285D01*
X142625000Y-93511666D01*
X142601190Y-93464047D01*
X143077381Y-93059285D02*
X143101190Y-92987856D01*
X143101190Y-92868809D01*
X143077381Y-92821190D01*
X143053571Y-92797380D01*
X143005952Y-92773571D01*
X142958333Y-92773571D01*
X142910714Y-92797380D01*
X142886905Y-92821190D01*
X142863095Y-92868809D01*
X142839286Y-92964047D01*
X142815476Y-93011666D01*
X142791667Y-93035475D01*
X142744048Y-93059285D01*
X142696429Y-93059285D01*
X142648810Y-93035475D01*
X142625000Y-93011666D01*
X142601190Y-92964047D01*
X142601190Y-92844999D01*
X142625000Y-92773571D01*
X143101190Y-92559285D02*
X142601190Y-92559285D01*
X143101190Y-91316904D02*
X142601190Y-91316904D01*
X143101190Y-90793095D02*
X142863095Y-90959762D01*
X143101190Y-91078809D02*
X142601190Y-91078809D01*
X142601190Y-90888333D01*
X142625000Y-90840714D01*
X142648810Y-90816905D01*
X142696429Y-90793095D01*
X142767857Y-90793095D01*
X142815476Y-90816905D01*
X142839286Y-90840714D01*
X142863095Y-90888333D01*
X142863095Y-91078809D01*
X143148810Y-90245476D02*
X143125000Y-90293095D01*
X143077381Y-90340714D01*
X143005952Y-90412143D01*
X142982143Y-90459762D01*
X142982143Y-90507381D01*
X143101190Y-90483571D02*
X143077381Y-90531190D01*
X143029762Y-90578809D01*
X142934524Y-90602619D01*
X142767857Y-90602619D01*
X142672619Y-90578809D01*
X142625000Y-90531190D01*
X142601190Y-90483571D01*
X142601190Y-90388333D01*
X142625000Y-90340714D01*
X142672619Y-90293095D01*
X142767857Y-90269286D01*
X142934524Y-90269286D01*
X143029762Y-90293095D01*
X143077381Y-90340714D01*
X143101190Y-90388333D01*
X143101190Y-90483571D01*
X148181190Y-91590714D02*
X147681190Y-91590714D01*
X148038333Y-91424048D01*
X147681190Y-91257381D01*
X148181190Y-91257381D01*
X148181190Y-91019285D02*
X147681190Y-91019285D01*
X148157381Y-90805000D02*
X148181190Y-90733571D01*
X148181190Y-90614524D01*
X148157381Y-90566905D01*
X148133571Y-90543095D01*
X148085952Y-90519286D01*
X148038333Y-90519286D01*
X147990714Y-90543095D01*
X147966905Y-90566905D01*
X147943095Y-90614524D01*
X147919286Y-90709762D01*
X147895476Y-90757381D01*
X147871667Y-90781190D01*
X147824048Y-90805000D01*
X147776429Y-90805000D01*
X147728810Y-90781190D01*
X147705000Y-90757381D01*
X147681190Y-90709762D01*
X147681190Y-90590714D01*
X147705000Y-90519286D01*
X147681190Y-90209762D02*
X147681190Y-90114524D01*
X147705000Y-90066905D01*
X147752619Y-90019286D01*
X147847857Y-89995477D01*
X148014524Y-89995477D01*
X148109762Y-90019286D01*
X148157381Y-90066905D01*
X148181190Y-90114524D01*
X148181190Y-90209762D01*
X148157381Y-90257381D01*
X148109762Y-90305000D01*
X148014524Y-90328810D01*
X147847857Y-90328810D01*
X147752619Y-90305000D01*
X147705000Y-90257381D01*
X147681190Y-90209762D01*
X148157381Y-93987857D02*
X148181190Y-93916428D01*
X148181190Y-93797381D01*
X148157381Y-93749762D01*
X148133571Y-93725952D01*
X148085952Y-93702143D01*
X148038333Y-93702143D01*
X147990714Y-93725952D01*
X147966905Y-93749762D01*
X147943095Y-93797381D01*
X147919286Y-93892619D01*
X147895476Y-93940238D01*
X147871667Y-93964047D01*
X147824048Y-93987857D01*
X147776429Y-93987857D01*
X147728810Y-93964047D01*
X147705000Y-93940238D01*
X147681190Y-93892619D01*
X147681190Y-93773571D01*
X147705000Y-93702143D01*
X148133571Y-93202143D02*
X148157381Y-93225953D01*
X148181190Y-93297381D01*
X148181190Y-93345000D01*
X148157381Y-93416429D01*
X148109762Y-93464048D01*
X148062143Y-93487857D01*
X147966905Y-93511667D01*
X147895476Y-93511667D01*
X147800238Y-93487857D01*
X147752619Y-93464048D01*
X147705000Y-93416429D01*
X147681190Y-93345000D01*
X147681190Y-93297381D01*
X147705000Y-93225953D01*
X147728810Y-93202143D01*
X148181190Y-92987857D02*
X147681190Y-92987857D01*
X148181190Y-92702143D02*
X147895476Y-92916429D01*
X147681190Y-92702143D02*
X147966905Y-92987857D01*
X148133571Y-95956428D02*
X148157381Y-95980238D01*
X148181190Y-96051666D01*
X148181190Y-96099285D01*
X148157381Y-96170714D01*
X148109762Y-96218333D01*
X148062143Y-96242142D01*
X147966905Y-96265952D01*
X147895476Y-96265952D01*
X147800238Y-96242142D01*
X147752619Y-96218333D01*
X147705000Y-96170714D01*
X147681190Y-96099285D01*
X147681190Y-96051666D01*
X147705000Y-95980238D01*
X147728810Y-95956428D01*
X147919286Y-95742142D02*
X147919286Y-95575476D01*
X148181190Y-95504047D02*
X148181190Y-95742142D01*
X147681190Y-95742142D01*
X147681190Y-95504047D01*
X147705000Y-98805953D02*
X147681190Y-98853572D01*
X147681190Y-98925000D01*
X147705000Y-98996429D01*
X147752619Y-99044048D01*
X147800238Y-99067857D01*
X147895476Y-99091667D01*
X147966905Y-99091667D01*
X148062143Y-99067857D01*
X148109762Y-99044048D01*
X148157381Y-98996429D01*
X148181190Y-98925000D01*
X148181190Y-98877381D01*
X148157381Y-98805953D01*
X148133571Y-98782143D01*
X147966905Y-98782143D01*
X147966905Y-98877381D01*
X148181190Y-98567857D02*
X147681190Y-98567857D01*
X148181190Y-98282143D01*
X147681190Y-98282143D01*
X148181190Y-98044047D02*
X147681190Y-98044047D01*
X147681190Y-97925000D01*
X147705000Y-97853571D01*
X147752619Y-97805952D01*
X147800238Y-97782143D01*
X147895476Y-97758333D01*
X147966905Y-97758333D01*
X148062143Y-97782143D01*
X148109762Y-97805952D01*
X148157381Y-97853571D01*
X148181190Y-97925000D01*
X148181190Y-98044047D01*
D11*
X158924667Y-83482381D02*
X158924667Y-84196667D01*
X158877047Y-84339524D01*
X158781809Y-84434762D01*
X158638952Y-84482381D01*
X158543714Y-84482381D01*
X159924667Y-84482381D02*
X159353238Y-84482381D01*
X159638952Y-84482381D02*
X159638952Y-83482381D01*
X159543714Y-83625238D01*
X159448476Y-83720476D01*
X159353238Y-83768095D01*
X140168334Y-97409143D02*
X140120715Y-97456762D01*
X139977858Y-97504381D01*
X139882620Y-97504381D01*
X139739762Y-97456762D01*
X139644524Y-97361524D01*
X139596905Y-97266286D01*
X139549286Y-97075810D01*
X139549286Y-96932952D01*
X139596905Y-96742476D01*
X139644524Y-96647238D01*
X139739762Y-96552000D01*
X139882620Y-96504381D01*
X139977858Y-96504381D01*
X140120715Y-96552000D01*
X140168334Y-96599619D01*
X141120715Y-97504381D02*
X140549286Y-97504381D01*
X140835000Y-97504381D02*
X140835000Y-96504381D01*
X140739762Y-96647238D01*
X140644524Y-96742476D01*
X140549286Y-96790095D01*
M02*
